<svg width="200" height="200" viewBox="0 0 200 200" fill="none" xmlns="http://www.w3.org/2000/svg">
<g clip-path="url(#clip0_1_3)">
<path d="M62.3438 85.9375C57.8516 85.9375 54.5703 87.4219 52.4219 89.7266C49.4922 92.8516 44.5312 93.0078 41.0547 90.0781C38.2383 87.1094 38.0781 82.1875 41.0156 79.0234C46.7188 72.9688 54.8047 70.3125 62.3438 70.3125C69.5703 70.3125 78.0078 72.9688 83.6719 79.0234C86.6406 82.1875 86.4844 87.1094 83.3203 90.0781C80.1563 93.0078 75.2344 92.8516 72.2656 89.7266C70.1562 87.4219 66.5234 85.9375 62.3438 85.9375ZM116.367 90.0781C113.242 87.1094 113.086 82.1875 116.016 79.0234C121.719 72.9688 129.805 70.3125 137.344 70.3125C144.57 70.3125 153.008 72.9688 158.672 79.0234C161.641 82.1875 161.484 87.1094 158.32 90.0781C155.156 93.0078 150.234 92.8516 147.266 89.7266C145.156 87.4219 141.523 85.9375 137.344 85.9375C132.852 85.9375 129.57 87.4219 127.422 89.7266C124.492 92.8516 119.531 93.0078 116.367 90.0781ZM81.25 125C81.25 114.648 89.6484 106.25 100 106.25C110.352 106.25 118.75 114.648 118.75 125V137.5C118.75 147.852 110.352 156.25 100 156.25C89.6484 156.25 81.25 147.852 81.25 137.5V125ZM0 100C0 44.7656 44.7656 0 100 0C155.234 0 200 44.7656 200 100C200 155.234 155.234 200 100 200C44.7656 200 0 155.234 0 100ZM156.25 158.633C171.641 143.828 181.25 122.695 181.25 100C181.25 55.1172 144.883 18.75 100 18.75C55.1172 18.75 18.75 55.1172 18.75 100C18.75 122.695 28.3398 143.828 43.75 158.633V112.5C43.75 107.305 47.9297 103.125 53.125 103.125C58.3203 103.125 62.5 107.305 62.5 112.5V172.109C73.7109 177.93 86.4844 181.25 100 181.25C113.516 181.25 126.289 177.93 137.5 172.109V112.5C137.5 107.305 141.68 103.125 146.875 103.125C152.07 103.125 156.25 107.305 156.25 112.5V158.633Z" fill="#02182B"/>
</g>
<defs>
<clipPath id="clip0_1_3">
<rect width="200" height="200" fill="white"/>
</clipPath>
</defs>
</svg>
