<?xml version="1.0" encoding="iso-8859-1"?>
<!-- Uploaded to: SVG Repo, www.svgrepo.com, Generator: SVG Repo Mixer Tools -->
<svg version="1.1" id="Layer_1" xmlns="http://www.w3.org/2000/svg" xmlns:xlink="http://www.w3.org/1999/xlink" 
	 viewBox="0 0 512 512" xml:space="preserve">
<g>
	<polygon style="fill:#FF7452;" points="12.09,295.951 12.09,363.236 47.356,369.114 45.733,290.344 	"/>
	<polygon style="fill:#FF7452;" points="188.715,102.505 121.429,178.201 188.715,178.201 	"/>
	<path style="fill:#FF7452;" d="M344.312,169.791H150.867c-58.064,0-105.133,47.069-105.133,105.133v75.696
		c0,6.31,0.557,12.49,1.623,18.494c8.637,48.669,50.759,85.758,101.705,86.617h214.116c49.061-8.889,86.268-53.488,86.268-105.11
		v-75.696C449.446,216.86,402.376,169.791,344.312,169.791z"/>
</g>
<circle style="fill:#FB9D46;" cx="372.698" cy="233.922" r="30.489"/>
<path style="fill:#E24642;" d="M390.5,426.739l-214.116,1.668c-50.946-0.859-93.068-37.947-101.705-86.617
	c-1.065-6.004-1.623-12.184-1.623-18.494V247.6c0-22.051,6.794-42.512,18.395-59.415c-27.607,18.947-45.718,50.726-45.718,86.739
	v75.696c0,6.31,0.557,12.49,1.623,18.494c8.637,48.669,50.759,85.758,101.705,86.617h214.116
	c28.106-5.093,52.305-23.038,67.864-45.709C419.075,418.234,405.336,424.052,390.5,426.739z"/>
<g>
	<rect x="167.688" y="455.754" style="fill:#FF7452;" width="50.464" height="46.259"/>
	<rect x="277.027" y="455.754" style="fill:#FF7452;" width="50.464" height="46.259"/>
</g>
<polygon style="fill:#AFF078;" points="339.272,322.451 358.538,315.055 373.13,300.463 393.739,301.543 413.004,294.148 
	431.392,303.516 452,304.596 464.987,320.634 483.374,330.002 488.716,349.936 501.703,365.974 498.475,386.356 503.815,406.289 
	492.577,423.597 489.348,443.98 472.041,455.22 460.801,472.527 440.419,475.755 423.111,486.994 403.177,481.653 382.795,484.882 
	366.757,471.895 346.824,466.553 337.455,448.166 321.417,435.179 320.337,414.571 310.969,396.183 318.364,376.917 
	317.284,356.309 331.876,341.716 "/>
<circle style="fill:#5AC779;" cx="407.697" cy="390.266" r="75.696"/>
<g>
	<path style="fill:#FFD652;" d="M62.554,87.786c12.269,15.644,29.763,18.409,33.643,18.924c-3.879,0.515-21.374,3.28-33.643,18.924
		c-8.579,10.944-10.145,22.499-10.513,27.335c-0.368-4.836-1.934-16.39-10.513-27.335c-12.269-15.644-29.763-18.409-33.643-18.924
		c3.879-0.515,21.374-3.28,33.643-18.924c8.579-10.944,10.145-22.499,10.513-27.335C52.409,65.288,53.976,76.842,62.554,87.786z"/>
	<path style="fill:#FFD652;" d="M449.446,87.786c-12.269,15.644-29.763,18.409-33.643,18.924c3.879,0.515,21.374,3.28,33.643,18.924
		c8.579,10.944,10.145,22.499,10.513,27.335c0.368-4.836,1.934-16.39,10.513-27.335c12.269-15.644,29.763-18.409,33.643-18.924
		c-3.879-0.515-21.374-3.28-33.643-18.924c-8.579-10.944-10.145-22.499-10.513-27.335C459.591,65.288,458.025,76.842,449.446,87.786
		z"/>
	<path style="fill:#FFD652;" d="M268.616,37.322c12.269,15.644,29.763,18.409,33.643,18.924c-3.879,0.515-21.374,3.28-33.643,18.924
		c-8.579,10.944-10.145,22.499-10.513,27.335c-0.368-4.836-1.934-16.39-10.513-27.335c-12.269-15.644-29.763-18.409-33.643-18.924
		c3.879-0.515,21.374-3.28,33.643-18.924c8.579-10.944,10.145-22.499,10.513-27.335C258.471,14.824,260.037,26.378,268.616,37.322z"
		/>
</g>
<path d="M90.576,426.924c-18.719-14.81-31.311-35.831-35.456-59.187c-0.997-5.616-1.501-11.375-1.501-17.117v-75.696
	c0-53.623,43.625-97.248,97.248-97.248h75.696c4.355,0,7.885-3.53,7.885-7.885s-3.53-7.885-7.885-7.885H196.6v-59.4
	c0-3.274-2.023-6.207-5.082-7.37c-3.06-1.163-6.52-0.315-8.696,2.131l-57.94,65.183c-0.764,0.86-1.3,1.842-1.623,2.873
	c-49.017,12.352-85.41,56.805-85.41,109.602v8.74l-27.054,4.509c-3.803,0.634-6.589,3.923-6.589,7.778v67.285
	c0,3.831,2.754,7.108,6.528,7.767l30.052,5.25c5.763,24.841,19.809,47.059,40.006,63.037c1.448,1.146,3.174,1.702,4.887,1.702
	c2.327,0,4.633-1.026,6.189-2.993C94.57,434.585,93.991,429.626,90.576,426.924z M180.83,123.245v38.661h-29.963
	c-1.503,0-2.998,0.039-4.488,0.097L180.83,123.245z M19.975,302.631l17.873-2.978v50.969c0,3.061,0.139,6.126,0.385,9.179
	l-18.257-3.191V302.631z"/>
<path d="M130.366,279.129c0,4.355,3.53,7.885,7.885,7.885s7.885-3.53,7.885-7.885c0-18.261-14.856-33.117-33.117-33.117
	s-33.117,14.856-33.117,33.117c0,4.355,3.53,7.885,7.885,7.885c4.355,0,7.885-3.53,7.885-7.885c0-9.565,7.782-17.347,17.347-17.347
	S130.366,269.564,130.366,279.129z"/>
<path d="M506.525,385.934l2.966-18.727c0.35-2.208-0.254-4.459-1.66-6.196l-11.932-14.736l-4.908-18.315
	c-0.578-2.158-2.046-3.97-4.037-4.984l-16.894-8.608l-11.932-14.736c-0.254-0.314-0.538-0.598-0.834-0.867
	c0.021-0.236,0.036-0.473,0.036-0.714v-11.586c28.456-3.864,50.464-28.303,50.464-57.801c0-32.174-26.175-58.349-58.349-58.349
	c-4.355,0-7.885,3.53-7.885,7.885s3.53,7.885,7.885,7.885c23.478,0,42.579,19.101,42.579,42.579
	c0,20.816-15.019,38.179-34.788,41.852c-2.324-60.283-52.082-108.61-112.925-108.61h-79.901c-4.355,0-7.885,3.53-7.885,7.885
	s3.53,7.885,7.885,7.885h79.901c53.623,0,97.248,43.625,97.248,97.248v21.229l-8.083-0.424l-16.894-8.608
	c-1.99-1.015-4.319-1.136-6.405-0.335l-17.701,6.795l-18.935-0.992c-2.233-0.119-4.407,0.718-5.988,2.299l-13.408,13.407
	l-17.701,6.795c-2.086,0.801-3.734,2.45-4.535,4.535l-6.795,17.701l-13.407,13.408c-1.58,1.58-2.416,3.756-2.299,5.988l0.992,18.935
	l-6.795,17.701c-0.801,2.086-0.679,4.415,0.335,6.405l8.608,16.894l0.992,18.936c0.117,2.232,1.175,4.309,2.912,5.715l6.403,5.184
	H149.099c-12.902-0.23-25.393-1.592-37.128-6.718c-3.992-1.742-8.639,0.079-10.382,4.07c-1.743,3.991,0.079,8.639,4.07,10.382
	c13.682,5.977,28.24,9.135,43.27,9.389c0.044,0,0.089,0.001,0.134,0.001c0.02,0,0.041,0,0.061,0l10.679-0.082v38.48
	c0,4.355,3.53,7.885,7.885,7.885h50.464c4.355,0,7.885-3.53,7.885-7.885v-38.673h43.105v38.673c0,4.355,3.53,7.885,7.885,7.885
	h50.464c4.355,0,7.885-3.53,7.885-7.885v-39.848l0.362-0.003l4.061,7.971c1.015,1.991,2.826,3.459,4.984,4.037l18.315,4.908
	l14.736,11.932c1.737,1.407,3.987,2.011,6.196,1.66l18.727-2.966l18.315,4.907c2.075,0.555,4.533,0.166,6.335-1.004l15.901-10.326
	l18.727-2.966c2.208-0.35,4.162-1.62,5.38-3.494l10.326-15.901l15.901-10.326c1.875-1.217,3.145-3.172,3.494-5.38l2.966-18.727
	l10.326-15.901c1.217-1.875,1.581-4.177,1.004-6.335L506.525,385.934z M210.267,494.127h-34.694v-30.788h34.694V494.127z
	 M319.606,494.127h-34.694v-30.788h34.694V494.127z M485.964,419.303c-0.601,0.927-1.002,1.97-1.175,3.061l-2.679,16.915
	l-14.363,9.327c-0.927,0.601-1.717,1.392-2.319,2.319l-9.327,14.363l-16.915,2.679c-1.091,0.173-2.134,0.573-3.061,1.175
	l-14.362,9.327l-16.543-4.432c-0.668-0.179-1.353-0.268-2.041-0.268c-0.412,0-0.824,0.033-1.233,0.097l-16.915,2.679l-13.31-10.777
	c-0.859-0.696-1.853-1.203-2.921-1.489l-16.543-4.432l-7.775-15.259c-0.501-0.985-1.205-1.852-2.064-2.548l-13.31-10.777
	l-0.897-17.103c-0.058-1.103-0.347-2.183-0.848-3.167l-7.775-15.259l6.137-15.989c0.395-1.031,0.571-2.134,0.513-3.238
	l-0.897-17.103l12.11-12.11c0.781-0.781,1.39-1.718,1.786-2.749l6.138-15.989l15.989-6.138c1.031-0.396,1.968-1.005,2.749-1.786
	l12.11-12.11l17.103,0.897c1.1,0.058,2.207-0.117,3.238-0.513l15.989-6.137l15.259,7.775c0.985,0.501,2.064,0.791,3.167,0.848
	l17.103,0.897l10.777,13.31c0.696,0.859,1.563,1.562,2.548,2.064l15.259,7.775l4.432,16.543c0.286,1.067,0.793,2.062,1.489,2.921
	l10.777,13.31l-2.679,16.915c-0.173,1.091-0.115,2.207,0.171,3.274l4.432,16.543L485.964,419.303z"/>
<path d="M379.143,387.028c13.623,0,24.706-11.083,24.706-24.706s-11.083-24.706-24.706-24.706s-24.706,11.083-24.706,24.706
	S365.52,387.028,379.143,387.028z M379.143,353.385c4.928,0,8.936,4.009,8.936,8.936s-4.009,8.936-8.936,8.936
	s-8.936-4.009-8.936-8.936S374.215,353.385,379.143,353.385z"/>
<path d="M435.642,394.114c-13.623,0-24.706,11.083-24.706,24.706s11.083,24.706,24.706,24.706s24.706-11.083,24.706-24.706
	S449.265,394.114,435.642,394.114z M435.642,427.757c-4.928,0-8.936-4.009-8.936-8.936s4.009-8.936,8.936-8.936
	s8.936,4.009,8.936,8.936S440.569,427.757,435.642,427.757z"/>
<path d="M454.91,343.053c-3.079-3.079-8.072-3.079-11.15,0l-82.004,82.004c-3.079,3.079-3.079,8.072,0,11.15
	c1.539,1.539,3.558,2.31,5.575,2.31s4.036-0.77,5.575-2.31l82.004-82.004C457.99,351.125,457.99,346.132,454.91,343.053z"/>
<path d="M314.349,203.433c0-4.355-3.53-7.885-7.885-7.885H188.715c-4.355,0-7.885,3.53-7.885,7.885s3.53,7.885,7.885,7.885h117.749
	C310.819,211.318,314.349,207.788,314.349,203.433z"/>
<path d="M277.027,287.014c4.355,0,7.885-3.53,7.885-7.885c0-4.355-3.53-7.885-7.885-7.885h-21.552v-8.936
	c0-4.355-3.53-7.885-7.885-7.885c-4.355,0-7.885,3.53-7.885,7.885v8.936h-6.834c-10.144,0-18.398,8.254-18.398,18.398v16.821
	c0,10.144,8.254,18.398,18.398,18.398h6.834v22.078h-21.552c-4.355,0-7.885,3.53-7.885,7.885c0,4.355,3.53,7.885,7.885,7.885h21.552
	v8.936c0,4.355,3.53,7.885,7.885,7.885c4.355,0,7.885-3.53,7.885-7.885v-8.936h6.834c10.144,0,18.398-8.254,18.398-18.398v-16.821
	c0-10.144-8.254-18.398-18.398-18.398h-6.834v-22.078H277.027z M262.308,324.862c1.449,0,2.628,1.18,2.628,2.628v16.821
	c0,1.449-1.18,2.628-2.628,2.628h-6.834v-22.078H262.308z M239.704,309.092h-6.834c-1.449,0-2.628-1.18-2.628-2.628v-16.821
	c0-1.449,1.18-2.628,2.628-2.628h6.834V309.092z"/>
<path d="M35.322,130.499c6.843,8.729,8.486,18.201,8.856,23.068c0.313,4.111,3.74,7.287,7.863,7.287s7.55-3.176,7.863-7.287
	c0.37-4.869,2.014-14.339,8.855-23.067c9.633-12.283,23.124-15.262,28.476-15.974c3.918-0.52,6.846-3.863,6.846-7.816
	c0-3.953-2.928-7.295-6.846-7.817c-5.352-0.712-18.843-3.692-28.475-15.972c-6.843-8.729-8.486-18.201-8.856-23.068
	c-0.313-4.111-3.741-7.287-7.863-7.287s-7.55,3.176-7.863,7.287c-0.37,4.869-2.014,14.339-8.855,23.067
	C25.69,95.203,12.2,98.183,6.846,98.894C2.928,99.415,0,102.757,0,106.71c0,3.953,2.928,7.295,6.846,7.817
	C12.2,115.238,25.69,118.218,35.322,130.499z M47.734,92.651c1.64-2.092,3.067-4.206,4.307-6.315
	c1.241,2.109,2.668,4.223,4.307,6.315l0.001,0.001c4.949,6.31,10.616,10.827,16.151,14.058c-5.535,3.233-11.202,7.749-16.152,14.059
	c-1.64,2.092-3.067,4.206-4.307,6.315c-1.242-2.109-2.669-4.225-4.309-6.317c-4.949-6.309-10.615-10.826-16.15-14.058
	C37.117,103.478,42.784,98.961,47.734,92.651z"/>
<path d="M414.764,114.527c5.353,0.712,18.844,3.691,28.475,15.972c6.843,8.729,8.486,18.201,8.856,23.068
	c0.313,4.111,3.74,7.287,7.863,7.287c4.123,0,7.55-3.176,7.863-7.287c0.37-4.869,2.014-14.339,8.855-23.067
	c9.633-12.283,23.124-15.262,28.476-15.974c3.919-0.52,6.846-3.863,6.846-7.817s-2.928-7.295-6.846-7.817
	c-5.353-0.712-18.844-3.691-28.475-15.972c-6.843-8.729-8.486-18.201-8.856-23.068c-0.313-4.11-3.741-7.286-7.863-7.286
	c-4.122,0-7.55,3.176-7.863,7.287c-0.37,4.869-2.014,14.339-8.856,23.068c-9.632,12.281-23.123,15.261-28.475,15.973
	c-3.918,0.52-6.846,3.863-6.846,7.816C407.918,110.663,410.846,114.006,414.764,114.527z M455.65,92.652l0.001-0.001
	c1.64-2.092,3.067-4.206,4.307-6.315c1.242,2.109,2.669,4.225,4.309,6.317c4.949,6.309,10.615,10.826,16.15,14.058
	c-5.535,3.233-11.202,7.749-16.152,14.06c-1.64,2.092-3.067,4.206-4.307,6.315c-1.242-2.109-2.669-4.225-4.309-6.317
	c-4.949-6.309-10.615-10.826-16.15-14.058C445.035,103.479,450.702,98.962,455.65,92.652z"/>
<path d="M212.908,64.063c5.353,0.712,18.844,3.691,28.475,15.972c6.843,8.729,8.486,18.201,8.856,23.068
	c0.313,4.111,3.74,7.287,7.863,7.287c4.123,0,7.55-3.176,7.863-7.287c0.37-4.869,2.014-14.339,8.855-23.067
	c9.633-12.283,23.124-15.262,28.476-15.974c3.918-0.52,6.846-3.863,6.846-7.816s-2.928-7.295-6.846-7.817
	c-5.352-0.712-18.843-3.692-28.475-15.972c-6.843-8.729-8.486-18.201-8.856-23.068c-0.313-4.111-3.741-7.287-7.863-7.287
	c-4.122,0-7.55,3.176-7.863,7.287c-0.37,4.869-2.014,14.339-8.855,23.067c-9.633,12.283-23.124,15.262-28.476,15.974
	c-3.918,0.52-6.846,3.863-6.846,7.816S208.99,63.542,212.908,64.063z M253.795,42.187c1.64-2.092,3.067-4.206,4.307-6.315
	c1.241,2.109,2.668,4.223,4.307,6.315l0.001,0.001c4.949,6.309,10.615,10.826,16.15,14.058c-5.535,3.233-11.202,7.749-16.152,14.059
	c-1.64,2.092-3.067,4.206-4.307,6.315c-1.242-2.109-2.669-4.225-4.309-6.317c-4.949-6.309-10.615-10.826-16.15-14.058
	C243.179,53.014,248.846,48.497,253.795,42.187z"/>
</svg>