<?xml version="1.0" encoding="iso-8859-1"?>
<!-- Uploaded to: SVG Repo, www.svgrepo.com, Generator: SVG Repo Mixer Tools -->
<svg height="800px" width="800px" version="1.1" id="Layer_1" xmlns="http://www.w3.org/2000/svg" xmlns:xlink="http://www.w3.org/1999/xlink" 
	 viewBox="0 0 512 512" xml:space="preserve">
<path style="fill:#FF7452;" d="M76.244,237.264L89.744,94.165c0.741-7.862,6.966-14.086,14.828-14.828l143.099-13.499
	c4.879-0.46,9.708,1.279,13.173,4.744l192.194,192.194c12.845,12.845,12.845,33.67,0,46.514L319.697,442.632
	c-12.845,12.845-33.67,12.845-46.514,0L80.988,250.438C77.523,246.972,75.785,242.143,76.244,237.264z M125.498,115.091
	c-6.85,6.85-6.85,17.957,0,24.807s17.957,6.85,24.807,0c6.85-6.85,6.85-17.957,0-24.807
	C143.455,108.24,132.348,108.24,125.498,115.091z"/>
<polygon style="fill:#E24642;" points="256.768,363.41 231.734,367.375 212.036,351.424 187.553,344.863 176.046,322.279 
	156.347,306.328 155.021,281.016 143.513,258.433 152.598,234.769 151.271,209.457 169.193,191.534 178.277,167.87 201.939,158.787 
	219.864,140.863 245.175,142.19 268.839,133.107 291.423,144.614 316.735,145.941 332.686,165.639 355.27,177.145 361.83,201.629 
	377.782,221.327 373.818,246.362 380.377,270.846 366.572,292.103 362.606,317.138 341.35,330.942 327.546,352.2 302.511,356.165 
	281.252,369.97 "/>
<polygon style="fill:#FFD652;" points="191.006,180.6 211.097,172.887 226.315,157.669 247.806,158.796 267.896,151.084 
	287.072,160.854 308.563,161.98 322.106,178.705 341.28,188.475 346.851,209.262 360.394,225.987 357.027,247.242 362.597,268.029 
	350.876,286.077 347.51,307.333 329.461,319.055 317.74,337.103 296.485,340.469 278.437,352.19 257.649,346.62 236.394,349.986 
	219.669,336.444 198.882,330.873 189.112,311.699 172.387,298.156 171.261,276.665 161.491,257.49 169.203,237.399 168.077,215.908 
	183.295,200.691 "/>
<circle style="fill:#FB9D46;" cx="263.137" cy="251.614" r="76.745"/>
<path d="M470.895,286.032c0-10.982-4.277-21.307-12.041-29.072L334.732,132.839c-3.215-3.212-8.42-3.21-11.629,0
	c-3.211,3.211-3.211,8.418,0,11.628l124.122,124.122c4.66,4.66,7.226,10.854,7.226,17.443s-2.567,12.784-7.226,17.443
	L313.882,436.818c-9.617,9.618-25.27,9.617-34.885,0L86.803,244.624c-1.739-1.739-2.604-4.14-2.373-6.587L97.567,98.788l17.27,17.27
	c-4.766,9.634-3.164,21.643,4.847,29.654c5.022,5.022,11.62,7.533,18.217,7.533c6.599,0,13.196-2.512,18.219-7.534
	c10.045-10.046,10.045-26.39-0.001-36.436c-8.01-8.009-20.018-9.611-29.653-4.846l-17.27-17.269l139.248-13.137
	c2.44-0.229,4.848,0.634,6.586,2.373l40.697,40.697c3.211,3.21,8.417,3.212,11.629,0c3.211-3.211,3.211-8.418,0-11.628
	l-40.697-40.697c-5.215-5.216-12.426-7.807-19.76-7.116L103.801,71.151c-2.954,0.278-5.755,1.077-8.313,2.301L24.444,2.408
	c-3.212-3.211-8.418-3.211-11.629,0s-3.211,8.418,0,11.628l71.044,71.044c-1.224,2.558-2.023,5.358-2.301,8.313L68.057,236.492
	c-0.693,7.342,1.9,14.544,7.115,19.76l192.194,192.194c8.017,8.016,18.544,12.023,29.072,12.023
	c10.529,0,21.057-4.008,29.073-12.023l133.34-133.343C466.617,307.339,470.895,297.015,470.895,286.032z M144.492,134.085
	c-3.633,3.633-9.546,3.636-13.179,0c-1.299-1.299-2.126-2.891-2.495-4.565c1.196,0.63,2.515,0.947,3.834,0.947
	c2.104,0,4.209-0.803,5.815-2.409c2.612-2.612,3.098-6.543,1.461-9.647c1.673,0.369,3.265,1.196,4.564,2.495
	C148.125,124.539,148.125,130.451,144.492,134.085z"/>
<path d="M289.247,152.734l-17.616-8.977c-2.078-1.058-4.505-1.186-6.68-0.35l-18.459,7.086l-19.747-1.035
	c-2.331-0.124-4.598,0.75-6.245,2.398l-13.981,13.981l-18.459,7.086c-2.175,0.835-3.895,2.555-4.73,4.73l-7.086,18.459
	l-13.982,13.981c-1.648,1.648-2.518,3.917-2.397,6.245l1.034,19.745l-7.086,18.459c-0.835,2.175-0.708,4.604,0.35,6.679
	l8.977,17.617l1.035,19.745c0.121,2.328,1.225,4.494,3.037,5.96l15.367,12.444l8.977,17.617c1.058,2.077,2.947,3.607,5.198,4.21
	l19.099,5.117l15.368,12.444c1.81,1.466,4.157,2.097,6.461,1.731l19.529-3.093l19.1,5.117c0.702,0.187,1.417,0.28,2.128,0.28
	c1.574,0,3.132-0.453,4.479-1.327l16.582-10.768l19.529-3.093c2.302-0.365,4.342-1.689,5.61-3.643l10.768-16.582l16.582-10.768
	c1.954-1.27,3.278-3.308,3.642-5.61l3.094-19.529l10.768-16.582c1.268-1.955,1.65-4.356,1.046-6.607l-5.117-19.1l3.092-19.529
	c0.365-2.302-0.264-4.65-1.73-6.461l-12.444-15.367l-5.119-19.1c-0.603-2.251-2.132-4.14-4.209-5.198l-17.617-8.977l-12.443-15.367
	c-1.467-1.811-3.632-2.915-5.961-3.037L289.247,152.734z M315.715,183.88c0.726,0.896,1.63,1.629,2.658,2.152l15.914,8.108
	l4.623,17.251c0.297,1.113,0.827,2.151,1.551,3.046l11.24,13.88l-2.794,17.639c-0.181,1.138-0.12,2.301,0.179,3.414l4.622,17.251
	l-9.727,14.977c-0.627,0.967-1.045,2.055-1.225,3.193l-2.795,17.639l-14.978,9.727c-0.966,0.627-1.79,1.452-2.417,2.419
	l-9.727,14.978l-17.639,2.794c-1.138,0.181-2.226,0.598-3.193,1.226l-14.977,9.727l-17.251-4.622
	c-0.696-0.186-1.412-0.28-2.128-0.28c-0.43,0-0.86,0.034-1.286,0.101l-17.639,2.794l-13.88-11.239
	c-0.895-0.726-1.934-1.254-3.046-1.552l-17.25-4.622l-8.109-15.913c-0.524-1.027-1.256-1.932-2.152-2.658l-13.879-11.239
	l-0.936-17.836c-0.06-1.15-0.361-2.276-0.885-3.302l-8.109-15.913l6.401-16.673c0.413-1.076,0.595-2.226,0.534-3.377l-0.935-17.836
	l12.63-12.629c0.815-0.815,1.448-1.791,1.862-2.868l6.401-16.673l16.672-6.401c1.076-0.413,2.053-1.048,2.868-1.863l12.629-12.629
	l17.836,0.935c1.152,0.061,2.302-0.122,3.377-0.535l16.673-6.399l15.913,8.108c1.027,0.523,2.152,0.824,3.303,0.885L304.479,170
	L315.715,183.88z"/>
<path d="M232.722,248.873c14.207,0,25.764-11.558,25.764-25.764s-11.558-25.764-25.764-25.764
	c-14.207,0-25.764,11.558-25.764,25.764S218.515,248.873,232.722,248.873z M232.722,213.79c5.139,0,9.319,4.18,9.319,9.319
	s-4.18,9.319-9.319,9.319c-5.139,0-9.319-4.18-9.319-9.319S227.583,213.79,232.722,213.79z"/>
<path d="M291.64,256.263c-14.207,0-25.764,11.558-25.764,25.764s11.558,25.764,25.764,25.764c14.207,0,25.764-11.558,25.764-25.764
	S305.847,256.263,291.64,256.263z M291.64,291.346c-5.139,0-9.319-4.18-9.319-9.319c0-5.139,4.18-9.319,9.319-9.319
	c5.139,0,9.319,4.18,9.319,9.319C300.959,287.166,296.778,291.346,291.64,291.346z"/>
<path d="M214.589,288.531c-3.211,3.211-3.211,8.418,0,11.628c1.606,1.605,3.711,2.409,5.815,2.409s4.209-0.803,5.815-2.409
	l85.516-85.516c3.211-3.211,3.211-8.418,0-11.628c-3.212-3.211-8.418-3.211-11.629,0L214.589,288.531z"/>
<path d="M431.974,165.55h22.475v9.319c0,4.541,3.68,8.223,8.223,8.223s8.223-3.682,8.223-8.223v-9.319h7.126
	c10.579,0,19.186-8.608,19.186-19.186v-17.542c0-10.579-8.608-19.186-19.186-19.186h-7.126V86.612h22.475
	c4.542,0,8.223-3.682,8.223-8.223c0-4.541-3.68-8.223-8.223-8.223h-22.475v-9.319c0-4.541-3.68-8.223-8.223-8.223
	s-8.223,3.682-8.223,8.223v9.319h-7.126c-10.579,0-19.186,8.608-19.186,19.186v17.542c0,10.579,8.608,19.186,19.186,19.186h7.126
	v23.024h-22.475c-4.542,0-8.223,3.682-8.223,8.223S427.432,165.55,431.974,165.55z M447.323,109.636
	c-1.512,0-2.741-1.23-2.741-2.741V89.353c0-1.511,1.229-2.741,2.741-2.741h7.126v23.024H447.323z M470.895,126.081h7.126
	c1.512,0,2.741,1.23,2.741,2.741v17.542c0,1.511-1.229,2.741-2.741,2.741h-7.126V126.081z"/>
<path d="M493.37,399.075h-22.475v-9.319c0-4.541-3.68-8.223-8.223-8.223s-8.223,3.682-8.223,8.223v9.319h-7.126
	c-10.579,0-19.186,8.608-19.186,19.186v17.542c0,10.579,8.608,19.186,19.186,19.186h7.126v23.024h-22.475
	c-4.542,0-8.223,3.682-8.223,8.223c0,4.541,3.68,8.223,8.223,8.223h22.475v9.319c0,4.541,3.68,8.223,8.223,8.223
	s8.223-3.682,8.223-8.223v-9.319h7.126c10.579,0,19.186-8.608,19.186-19.186V457.73c0-10.579-8.608-19.186-19.186-19.186h-7.126
	V415.52h22.475c4.542,0,8.223-3.682,8.223-8.223C501.593,402.756,497.911,399.075,493.37,399.075z M478.021,454.989
	c1.512,0,2.741,1.23,2.741,2.741v17.542c0,1.511-1.229,2.741-2.741,2.741h-7.126v-23.024H478.021z M454.45,438.544h-7.126
	c-1.512,0-2.741-1.23-2.741-2.741v-17.542c0-1.511,1.229-2.741,2.741-2.741h7.126V438.544z"/>
<path d="M133.764,399.075h-22.475v-9.319c0-4.541-3.68-8.223-8.223-8.223c-4.542,0-8.223,3.682-8.223,8.223v9.319h-7.126
	c-10.579,0-19.186,8.608-19.186,19.186v17.542c0,10.579,8.608,19.186,19.186,19.186h7.126v23.024H72.368
	c-4.542,0-8.223,3.682-8.223,8.223c0,4.541,3.68,8.223,8.223,8.223h22.475v9.319c0,4.541,3.68,8.223,8.223,8.223
	c4.542,0,8.223-3.682,8.223-8.223v-9.319h7.126c10.579,0,19.186-8.608,19.186-19.186V457.73c0-10.579-8.608-19.186-19.186-19.186
	h-7.126V415.52h22.475c4.542,0,8.223-3.682,8.223-8.223C141.987,402.756,138.306,399.075,133.764,399.075z M118.415,454.989
	c1.512,0,2.741,1.23,2.741,2.741v17.542c0,1.511-1.229,2.741-2.741,2.741h-7.126v-23.024H118.415z M94.844,438.544h-7.126
	c-1.512,0-2.741-1.23-2.741-2.741v-17.542c0-1.511,1.229-2.741,2.741-2.741h7.126V438.544z"/>
</svg>