<?xml version="1.0" encoding="iso-8859-1"?>
<!-- Uploaded to: SVG Repo, www.svgrepo.com, Generator: SVG Repo Mixer Tools -->
<svg version="1.1" id="Layer_1" xmlns="http://www.w3.org/2000/svg" xmlns:xlink="http://www.w3.org/1999/xlink" 
	 viewBox="0 0 512 512" xml:space="preserve">
<rect x="84.977" y="8.017" style="fill:#AFF078;" width="419.006" height="213.779"/>
<g>
	<rect x="84.977" y="8.017" style="fill:#5AC779;" width="29.929" height="213.779"/>
	<circle style="fill:#5AC779;" cx="294.48" cy="114.906" r="85.511"/>
</g>
<path style="fill:#00A085;" d="M320.134,174.764c-47.227,0-85.511-38.285-85.511-85.511c0-17.048,5.009-32.916,13.606-46.252
	c-23.611,15.219-39.259,41.726-39.259,71.906c0,47.227,38.285,85.511,85.511,85.511c30.179,0,56.687-15.649,71.907-39.259
	C353.049,169.755,337.181,174.764,320.134,174.764z"/>
<path style="fill:#FFD652;" d="M325.478,394.956H24.05c-8.855,0-16.033-7.179-16.033-16.033V192.935
	c0-8.855,7.179-16.033,16.033-16.033h301.428c8.855,0,16.033,7.179,16.033,16.033v185.987
	C341.511,387.777,334.333,394.956,325.478,394.956z"/>
<rect x="8.017" y="230.347" style="fill:#5AC779;" width="333.495" height="42.756"/>
<path style="fill:#FB9D46;" d="M40.084,378.923V192.935c0-8.855,7.179-16.033,16.033-16.033H24.05
	c-8.855,0-16.033,7.179-16.033,16.033v185.987c0,8.855,7.179,16.033,16.033,16.033h32.067
	C47.262,394.956,40.084,387.777,40.084,378.923z"/>
<rect x="8.017" y="230.347" style="fill:#00A085;" width="32.067" height="42.756"/>
<rect x="57.186" y="296.618" style="fill:#FFFFFF;" width="235.157" height="38.48"/>
<path style="fill:#E5E5E5;" d="M273.102,350.063c-7.084,0-12.827-5.743-12.827-12.827v-36.342c0-45.973,37.402-83.374,83.374-83.374
	s83.374,37.401,83.374,83.374v34.205c0,7.084-5.743,12.827-12.827,12.827c-7.084,0-12.827-5.743-12.827-12.827v-34.205
	c0-31.826-25.893-57.72-57.72-57.72s-57.72,25.894-57.72,57.72v36.342C285.929,344.319,280.186,350.063,273.102,350.063z"/>
<g>
	<path style="fill:#B2B2B2;" d="M260.276,337.236c0,7.084,5.743,12.827,12.827,12.827c7.084,0,12.827-5.743,12.827-12.827v-29.573
		h-25.653V337.236z"/>
	<path style="fill:#B2B2B2;" d="M401.37,307.663v27.435c0,7.084,5.743,12.827,12.827,12.827c7.084,0,12.827-5.743,12.827-12.827
		v-27.435H401.37z"/>
</g>
<path style="fill:#FF7452;" d="M448.401,503.983H238.898V360.752c0-17.711,14.356-32.067,32.067-32.067h145.37
	c17.71,0,32.067,14.356,32.067,32.067V503.983z"/>
<path style="fill:#E24642;" d="M303.031,328.685h-32.067c-17.71,0-32.067,14.356-32.067,32.067v143.232h32.067V360.752
	C270.965,343.041,285.321,328.685,303.031,328.685z"/>
<circle style="fill:#5AC779;" cx="343.649" cy="416.334" r="59.858"/>
<path style="fill:#00A085;" d="M366.096,453.745c-33.059,0-59.858-26.799-59.858-59.858c0-10.764,2.855-20.855,7.829-29.583
	c-18.077,10.301-30.275,29.734-30.275,52.029c0,33.059,26.799,59.858,59.858,59.858c22.295,0,41.729-12.198,52.029-30.275
	C386.951,450.89,376.86,453.745,366.096,453.745z"/>
<path d="M503.983,0h-87.649c-4.427,0-8.017,3.588-8.017,8.017s3.589,8.017,8.017,8.017h79.633v197.745H373.578
	c-0.598,0-1.178,0.071-1.738,0.195c-7.1-2.309-14.575-3.767-22.312-4.261v-16.777c0-0.789-0.041-1.568-0.115-2.338
	c24.24-17.601,38.596-45.582,38.596-75.692c0-51.572-41.956-93.528-93.528-93.528s-93.528,41.956-93.528,93.528
	c0,19.589,6.023,38.292,17.153,53.979H92.994V16.033h284.86c4.427,0,8.017-3.588,8.017-8.017S382.281,0,377.854,0H84.977
	C80.55,0,76.96,3.588,76.96,8.017v160.868H24.05c-13.262,0-24.05,10.789-24.05,24.05v185.987c0,13.261,10.788,24.05,24.05,24.05
	h97.269c4.427,0,8.017-3.588,8.017-8.017s-3.589-8.017-8.017-8.017H24.05c-4.421,0-8.017-3.596-8.017-8.017v-97.804h238.405
	c-1.412,6.373-2.179,12.984-2.179,19.775v23.516c0,0.298,0.019,0.591,0.05,0.881c-10.456,5.523-18.193,15.528-20.622,27.445h-48.372
	c-4.427,0-8.017,3.588-8.017,8.017c0,4.428,3.589,8.017,8.017,8.017h47.566v18.171h-73.219c-4.427,0-8.017,3.588-8.017,8.017
	s3.589,8.017,8.017,8.017h73.219v101.01c0,4.428,3.589,8.017,8.017,8.017h209.503c4.427,0,8.017-3.588,8.017-8.017V360.752
	c0-15.349-8.676-28.704-21.378-35.436v-24.422c0-28.686-13.296-54.314-34.037-71.081h102.98c4.427,0,8.017-3.588,8.017-8.017V8.017
	C512,3.588,508.411,0,503.983,0z M216.985,114.906c0-42.731,34.764-77.495,77.495-77.495s77.495,34.764,77.495,77.495
	c0,23.949-10.961,46.272-29.608,60.927c-4.346-4.293-10.313-6.948-16.888-6.948h-22.981v-7.482h6.948
	c10.314,0,18.706-8.392,18.706-18.706v-17.102c0-10.314-8.392-18.706-18.706-18.706h-6.948V84.443h21.912
	c4.427,0,8.017-3.588,8.017-8.017s-3.589-8.017-8.017-8.017h-21.912v-9.086c0-4.428-3.589-8.017-8.017-8.017
	c-4.427,0-8.017,3.588-8.017,8.017v9.086h-6.948c-10.314,0-18.706,8.392-18.706,18.706v17.102c0,10.314,8.392,18.706,18.706,18.706
	h6.948v22.447h-21.912c-4.427,0-8.017,3.588-8.017,8.017c0,4.428,3.589,8.017,8.017,8.017h21.912v7.482h-47.575
	C224.765,154.345,216.985,135.194,216.985,114.906z M302.497,145.37v-22.447h6.948c1.473,0,2.672,1.198,2.672,2.672v17.102
	c0,1.474-1.199,2.672-2.672,2.672H302.497z M286.463,106.889h-6.948c-1.473,0-2.672-1.198-2.672-2.672V87.115
	c0-1.474,1.199-2.672,2.672-2.672h6.948V106.889z M24.05,184.919h301.428c4.421,0,8.017,3.596,8.017,8.017v17.146
	c-13.216,1.469-25.586,5.762-36.497,12.268c-0.126-0.005-0.251-0.019-0.379-0.019H16.033v-29.395
	C16.033,188.514,19.629,184.919,24.05,184.919z M16.033,265.086v-26.722H277.09c-7.298,7.763-13.269,16.787-17.517,26.722H16.033z
	 M440.384,495.967h-193.47V360.752c0-13.261,10.788-24.05,24.05-24.05h145.37c13.262,0,24.05,10.789,24.05,24.05V495.967z
	 M393.353,320.668h-43.825v-69.119c24.644,2.919,43.825,23.927,43.825,49.344V320.668z M333.495,265.086h-24.263
	c6.609-6.355,14.959-10.91,24.263-12.849V265.086z M293.946,300.894c0-7.039,1.479-13.735,4.129-19.809
	c0.224,0.019,0.451,0.034,0.681,0.034h34.739v39.549h-39.549V300.894z M419.006,300.894v19.874
	c-0.884-0.059-1.773-0.099-2.672-0.099h-6.948v-19.775c0-36.247-29.49-65.737-65.737-65.737s-65.737,29.49-65.737,65.737v19.775
	h-6.948c-0.899,0-1.788,0.041-2.672,0.099v-19.874c0-41.552,33.805-75.357,75.357-75.357S419.006,259.341,419.006,300.894z"/>
<path d="M409.921,50.238h68.409c4.427,0,8.017-3.588,8.017-8.017s-3.589-8.017-8.017-8.017h-68.409
	c-4.427,0-8.017,3.588-8.017,8.017S405.493,50.238,409.921,50.238z"/>
<path d="M478.33,68.409h-51.307c-4.427,0-8.017,3.588-8.017,8.017s3.589,8.017,8.017,8.017h51.307c4.427,0,8.017-3.588,8.017-8.017
	S482.757,68.409,478.33,68.409z"/>
<path d="M187.056,42.221c0-4.428-3.589-8.017-8.017-8.017H110.63c-4.427,0-8.017,3.588-8.017,8.017s3.589,8.017,8.017,8.017h68.409
	C183.467,50.238,187.056,46.65,187.056,42.221z"/>
<path d="M161.937,68.409H110.63c-4.427,0-8.017,3.588-8.017,8.017s3.589,8.017,8.017,8.017h51.307c4.427,0,8.017-3.588,8.017-8.017
	S166.365,68.409,161.937,68.409z"/>
<path d="M452.676,204.159h25.653c4.427,0,8.017-3.588,8.017-8.017s-3.589-8.017-8.017-8.017h-25.653
	c-4.427,0-8.017,3.588-8.017,8.017S448.249,204.159,452.676,204.159z"/>
<path d="M384.802,196.142c0,4.428,3.589,8.017,8.017,8.017h25.653c4.427,0,8.017-3.588,8.017-8.017s-3.589-8.017-8.017-8.017
	h-25.653C388.391,188.125,384.802,191.714,384.802,196.142z"/>
<path d="M149.111,111.165c-11.493,0-20.843,9.351-20.843,20.843c0,11.493,9.351,20.843,20.843,20.843
	c11.493,0,20.843-9.351,20.843-20.843C169.954,120.516,160.603,111.165,149.111,111.165z M149.111,136.818
	c-2.652,0-4.81-2.158-4.81-4.81c0-2.652,2.158-4.81,4.81-4.81c2.652,0,4.81,2.158,4.81,4.81
	C153.921,134.66,151.763,136.818,149.111,136.818z"/>
<path d="M460.693,132.008c0-11.493-9.351-20.843-20.843-20.843s-20.843,9.351-20.843,20.843c0,11.493,9.351,20.843,20.843,20.843
	S460.693,143.501,460.693,132.008z M439.85,136.818c-2.652,0-4.81-2.158-4.81-4.81c0-2.652,2.158-4.81,4.81-4.81
	s4.81,2.158,4.81,4.81C444.66,134.66,442.502,136.818,439.85,136.818z"/>
<path d="M343.649,348.459c-37.426,0-67.875,30.449-67.875,67.875s30.448,67.875,67.875,67.875s67.875-30.448,67.875-67.875
	S381.076,348.459,343.649,348.459z M343.649,468.175c-28.585,0-51.841-23.256-51.841-51.841c0-28.585,23.256-51.841,51.841-51.841
	c28.585,0,51.841,23.256,51.841,51.841C395.491,444.919,372.235,468.175,343.649,468.175z"/>
<path d="M368.299,395.336l-28.255,24.724l-13.951-15.502c-2.962-3.291-8.031-3.557-11.322-0.595
	c-3.291,2.962-3.558,8.031-0.596,11.322l19.24,21.378c1.582,1.757,3.767,2.653,5.961,2.653c1.875,0,3.757-0.653,5.277-1.983
	l34.205-29.929c3.332-2.916,3.67-7.98,0.755-11.312C376.696,392.757,371.632,392.422,368.299,395.336z"/>
</svg>