<?xml version="1.0" encoding="iso-8859-1"?>
<!-- Uploaded to: SVG Repo, www.svgrepo.com, Generator: SVG Repo Mixer Tools -->
<svg version="1.1" id="Layer_1" xmlns="http://www.w3.org/2000/svg" xmlns:xlink="http://www.w3.org/1999/xlink" 
	 viewBox="0 0 512 512" xml:space="preserve">
<rect x="103.354" y="174.377" style="fill:#FFD652;" width="400.696" height="326.493"/>
<polygon style="fill:#FB9D46;" points="103.354,174.377 103.354,500.87 288.777,500.87 155.803,174.377 "/>
<rect x="381.085" y="174.377" style="fill:#F7EDBC;" width="122.965" height="326.493"/>
<polygon style="fill:#FB9D46;" points="444.688,435.147 381.085,500.87 504.05,500.87 "/>
<polygon style="fill:#FF7452;" points="277.201,500.87 7.951,500.87 35.512,322.783 249.64,322.783 "/>
<polygon style="fill:#E24642;" points="35.512,322.783 7.951,500.87 132.956,500.87 54.759,322.783 "/>
<polygon style="fill:#FFD652;" points="181.797,456.348 126.675,456.348 126.675,382.145 154.236,356.704 181.797,382.145 "/>
<polygon style="fill:#FB9D46;" points="126.675,382.145 126.675,456.348 143.99,456.348 143.99,366.163 "/>
<path d="M504.05,166.427h-59.892V98.054c0-52.313-42.56-94.874-94.874-94.874c-19.161,0-37.01,5.716-51.942,15.523
	C282.41,8.896,264.561,3.18,245.4,3.18c-52.313,0-94.874,42.561-94.874,94.874v21.201c0,4.392,3.559,7.95,7.95,7.95
	c4.392,0,7.95-3.559,7.95-7.95V98.054c0-43.545,35.428-78.973,78.973-78.973c14.037,0,27.22,3.698,38.654,10.146
	c-18.245,17.302-29.644,41.758-29.644,68.827v68.373h-87.983v-17.491c0-4.392-3.559-7.95-7.95-7.95c-4.392,0-7.95,3.559-7.95,7.95
	v17.491h-47.172c-4.392,0-7.95,3.559-7.95,7.95v88.546c-14.694,12.761-24.315,31.217-25.347,51.909H35.512
	c-3.921,0-7.257,2.859-7.857,6.734L0.094,499.654c-0.355,2.294,0.311,4.628,1.821,6.39c1.511,1.762,3.715,2.776,6.036,2.776H504.05
	c4.392,0,7.95-3.559,7.95-7.95V174.377C512,169.986,508.442,166.427,504.05,166.427z M349.284,19.081
	c43.545,0,78.973,35.428,78.973,78.973v68.373h-87.983V98.054c0-27.07-11.398-51.527-29.644-68.827
	C322.065,22.779,335.248,19.081,349.284,19.081z M270.311,98.054c0-23.67,10.482-44.926,27.031-59.412
	c16.549,14.488,27.031,35.742,27.031,59.412v68.373h-54.062V98.054z M111.305,182.327h39.222v13.255
	c-7.462,3.122-12.721,10.495-12.721,19.077c0,11.398,9.273,20.671,20.671,20.671c11.398,0,20.671-9.273,20.671-20.671
	c0-8.581-5.259-15.955-12.721-19.077v-13.255h157.946v13.255c-7.462,3.122-12.72,10.495-12.72,19.077
	c0,11.398,9.273,20.671,20.671,20.671s20.671-9.273,20.671-20.671c0-8.581-5.259-15.955-12.72-19.077v-13.255h32.861v81.093
	c0,4.392,3.559,7.95,7.95,7.95s7.95-3.559,7.95-7.95v-81.093H496.1v297.88l-45.513-50.389c-1.476-1.634-3.562-2.582-5.763-2.62
	c-2.211-0.046-4.319,0.84-5.85,2.42l-49.937,51.604V297.343c0-4.392-3.559-7.95-7.95-7.95s-7.95,3.559-7.95,7.95v195.577h-89.119
	l-26.519-171.353c-0.6-3.876-3.935-6.734-7.857-6.734h-32.426c-1.939-38.906-34.2-69.963-73.579-69.963
	c-11.593,0-22.564,2.7-32.331,7.491V182.327z M163.247,214.659c0,2.63-2.14,4.77-4.77,4.77c-2.63,0-4.77-2.14-4.77-4.77
	c0-2.63,2.14-4.77,4.77-4.77C161.106,209.888,163.247,212.029,163.247,214.659z M337.093,214.659c0,2.63-2.14,4.77-4.77,4.77
	s-4.77-2.14-4.77-4.77c0-2.63,2.14-4.77,4.77-4.77S337.093,212.029,337.093,214.659z M486.156,492.919h-86.313l44.645-46.133
	L486.156,492.919z M154.236,367.524l19.611,18.102v62.771h-39.222v-62.771L154.236,367.524z M111.305,314.832v-44.145
	c9.232-6.257,20.362-9.917,32.331-9.917c30.609,0,55.719,23.929,57.64,54.062H111.305z M95.404,286.793v28.039h-9.408
	C86.653,304.521,90.023,294.941,95.404,286.793z M17.226,492.919l25.101-162.186h27.636v23.851c0,4.392,3.559,7.95,7.95,7.95
	s7.95-3.559,7.95-7.95v-23.851h60.422v22.491l-25.003,23.079c-1.63,1.505-2.558,3.623-2.558,5.842v74.203
	c0,4.392,3.559,7.95,7.95,7.95h55.122c4.392,0,7.95-3.559,7.95-7.95v-74.203c0-2.219-0.928-4.337-2.558-5.842l-25.003-23.079
	v-22.491h39.222v23.851c0,4.392,3.559,7.95,7.95,7.95c4.392,0,7.95-3.559,7.95-7.95v-23.851h25.516l25.101,162.186H17.226z"/>
</svg>