<?xml version="1.0" encoding="iso-8859-1"?>
<!-- Uploaded to: SVG Repo, www.svgrepo.com, Generator: SVG Repo Mixer Tools -->
<svg version="1.1" id="Layer_1" xmlns="http://www.w3.org/2000/svg" xmlns:xlink="http://www.w3.org/1999/xlink" 
	 viewBox="0 0 512 512" xml:space="preserve">
<g>
	<circle style="fill:#FF7452;" cx="411.305" cy="477.075" r="26.947"/>
	<circle style="fill:#FF7452;" cx="411.305" cy="477.075" r="26.947"/>
</g>
<path style="fill:#E24642;" d="M421.762,493.563c-14.882,0-26.947-12.065-26.947-26.947c0-4.753,1.235-9.216,3.395-13.092
	c-8.263,4.603-13.855,13.423-13.855,23.553c0,14.882,12.065,26.947,26.947,26.947c10.13,0,18.949-5.592,23.553-13.855
	C430.976,492.328,426.514,493.563,421.762,493.563z"/>
<g>
	<circle style="fill:#FF7452;" cx="173.034" cy="477.075" r="26.947"/>
	<circle style="fill:#FF7452;" cx="173.034" cy="477.075" r="26.947"/>
</g>
<path style="fill:#E24642;" d="M184.376,492.677c-14.882,0-26.947-12.065-26.947-26.947c0-4.52,1.118-8.776,3.085-12.517
	c-8.578,4.509-14.43,13.5-14.43,23.863c0,14.882,12.065,26.947,26.947,26.947c10.363,0,19.354-5.853,23.863-14.43
	C193.152,491.558,188.896,492.677,184.376,492.677z"/>
<rect x="106.02" y="150.515" style="fill:#FFD652;" width="285.075" height="280.82"/>
<polygon style="fill:#FB9D46;" points="106.017,150.515 106.017,431.335 228.054,431.335 142.338,150.515 "/>
<rect x="391.095" y="150.515" style="fill:#F7EDBC;" width="85.097" height="280.82"/>
<path style="fill:#FB9D46;" d="M187.391,284.011V150.515h122.327l-1.064,133.496c0,4.406-3.572,7.978-7.978,7.978H195.368
	C190.961,291.989,187.391,288.417,187.391,284.011z"/>
<rect x="203.881" y="150.515" style="fill:#FF7452;" width="89.352" height="121.263"/>
<circle style="fill:#5AC779;" cx="291.106" cy="67.546" r="59.568"/>
<path style="fill:#00A085;" d="M311.313,105.839c-32.899,0-59.568-26.669-59.568-59.568c0-10.579,2.77-20.505,7.604-29.116
	c-16.709,10.551-27.815,29.168-27.815,50.39c0,32.898,26.669,59.568,59.568,59.568c22.32,0,41.761-12.284,51.963-30.452
	C333.872,102.466,322.989,105.839,311.313,105.839z"/>
<path d="M501.718,423.358h-17.551V150.515c0-4.407-3.571-7.978-7.978-7.978H106.017c-4.407,0-7.978,3.571-7.978,7.978v272.842
	H86.338v-87.756c0-4.407-3.571-7.978-7.978-7.978s-7.978,3.571-7.978,7.978v95.734c0,4.407,3.571,7.978,7.978,7.978h423.358
	c4.407,0,7.978-3.571,7.978-7.978C509.695,426.928,506.124,423.358,501.718,423.358z M211.856,158.493h0.532h72.864v105.308h-73.396
	L211.856,158.493L211.856,158.493z M113.994,158.493H195.9v113.285c0,4.407,3.571,7.978,7.978,7.978h89.352
	c4.407,0,7.978-3.571,7.978-7.978V158.493h0.532h81.374v20.742c0,4.407,3.571,7.978,7.978,7.978c4.407,0,7.978-3.571,7.978-7.978
	v-20.742h69.141v264.864h-69.141v-209.02c0-4.407-3.571-7.978-7.978-7.978c-4.407,0-7.978,3.571-7.978,7.978v209.02H113.994
	C113.994,423.358,113.994,158.493,113.994,158.493z"/>
<path d="M70.382,299.435c0,4.407,3.571,7.978,7.978,7.978s7.978-3.571,7.978-7.978V42.017c0-21.995-17.894-39.889-39.889-39.889
	H10.282c-4.407,0-7.978,3.571-7.978,7.978s3.571,7.978,7.978,7.978h36.166c13.196,0,23.934,10.737,23.934,23.934V299.435z"/>
<path d="M411.302,442.15c-19.257,0-34.925,15.667-34.925,34.925S392.045,512,411.302,512c19.257,0,34.925-15.667,34.925-34.925
	S430.559,442.15,411.302,442.15z M411.302,496.044c-10.46,0-18.969-8.51-18.969-18.969s8.51-18.969,18.969-18.969
	s18.969,8.51,18.969,18.969S421.762,496.044,411.302,496.044z"/>
<path d="M173.03,442.15c-19.257,0-34.925,15.667-34.925,34.925S153.773,512,173.03,512s34.925-15.667,34.925-34.925
	S192.288,442.15,173.03,442.15z M173.03,496.044c-10.459,0-18.969-8.51-18.969-18.969s8.51-18.969,18.969-18.969
	c10.459,0,18.969,8.51,18.969,18.969S183.49,496.044,173.03,496.044z"/>
<path d="M137.928,308.477c-4.407,0-7.978,3.571-7.978,7.978v82.97c0,4.407,3.571,7.978,7.978,7.978s7.978-3.571,7.978-7.978v-82.97
	C145.906,312.048,142.334,308.477,137.928,308.477z"/>
<path d="M176.222,308.477c-4.407,0-7.978,3.571-7.978,7.978v82.97c0,4.407,3.571,7.978,7.978,7.978s7.978-3.571,7.978-7.978v-82.97
	C184.199,312.048,180.627,308.477,176.222,308.477z"/>
<path d="M197.496,308.477c-4.407,0-7.978,3.571-7.978,7.978v82.97c0,4.407,3.571,7.978,7.978,7.978s7.978-3.571,7.978-7.978v-82.97
	C205.474,312.048,201.902,308.477,197.496,308.477z"/>
<path d="M218.77,308.477c-4.407,0-7.978,3.571-7.978,7.978v82.97c0,4.407,3.571,7.978,7.978,7.978s7.978-3.571,7.978-7.978v-82.97
	C226.748,312.048,223.176,308.477,218.77,308.477z"/>
<path d="M240.044,308.477c-4.407,0-7.978,3.571-7.978,7.978v82.97c0,4.407,3.571,7.978,7.978,7.978s7.978-3.571,7.978-7.978v-82.97
	C248.022,312.048,244.45,308.477,240.044,308.477z"/>
<path d="M278.338,308.477c-4.407,0-7.978,3.571-7.978,7.978v82.97c0,4.407,3.571,7.978,7.978,7.978c4.407,0,7.978-3.571,7.978-7.978
	v-82.97C286.316,312.048,282.744,308.477,278.338,308.477z"/>
<path d="M299.612,308.477c-4.407,0-7.978,3.571-7.978,7.978v82.97c0,4.407,3.571,7.978,7.978,7.978c4.407,0,7.978-3.571,7.978-7.978
	v-82.97C307.59,312.048,304.018,308.477,299.612,308.477z"/>
<path d="M340.033,308.477c-4.407,0-7.978,3.571-7.978,7.978v82.97c0,4.407,3.571,7.978,7.978,7.978c4.407,0,7.978-3.571,7.978-7.978
	v-82.97C348.011,312.048,344.439,308.477,340.033,308.477z"/>
<path d="M359.18,308.477c-4.407,0-7.978,3.571-7.978,7.978v82.97c0,4.407,3.571,7.978,7.978,7.978c4.407,0,7.978-3.571,7.978-7.978
	v-82.97C367.158,312.048,363.586,308.477,359.18,308.477z"/>
<path d="M291.103,135.092c37.245,0,67.546-30.301,67.546-67.546S328.346,0,291.103,0s-67.546,30.301-67.546,67.546
	S253.858,135.092,291.103,135.092z M291.103,15.956c28.447,0,51.59,23.143,51.59,51.59s-23.143,51.59-51.59,51.59
	s-51.59-23.143-51.59-51.59S262.655,15.956,291.103,15.956z"/>
<path d="M280.917,87.775c1.573,1.749,3.747,2.64,5.932,2.64c1.866,0,3.738-0.65,5.25-1.973l34.039-29.784
	c3.316-2.902,3.653-7.942,0.751-11.257c-2.903-3.318-7.943-3.651-11.257-0.751l-28.119,24.604l-13.885-15.427
	c-2.948-3.276-7.994-3.54-11.267-0.592c-3.274,2.948-3.54,7.992-0.592,11.267L280.917,87.775z"/>
</svg>