<?xml version="1.0" encoding="iso-8859-1"?>
<!-- Uploaded to: SVG Repo, www.svgrepo.com, Generator: SVG Repo Mixer Tools -->
<svg height="800px" width="800px" version="1.1" id="Layer_1" xmlns="http://www.w3.org/2000/svg" xmlns:xlink="http://www.w3.org/1999/xlink" 
	 viewBox="0 0 512 512" xml:space="preserve">
<path style="fill:#FF7452;" d="M443.554,503.916H68.446V260.312L234.768,90.21c12.787-13.077,33.865-12.956,46.5,0.267
	l162.286,169.834V503.916z"/>
<polygon style="fill:#E5E5E5;" points="322.111,8.084 129.886,8.084 129.886,467.267 386.425,467.267 386.425,72.399 "/>
<polygon style="fill:#CCCCCC;" points="164.02,8.084 129.886,8.084 129.886,467.267 368.101,467.267 "/>
<circle style="fill:#AFF078;" cx="259.234" cy="291.571" r="90.543"/>
<path style="fill:#5AC779;" d="M293.187,348.16c-50.006,0-90.543-40.537-90.543-90.543c0-16.282,4.319-31.546,11.842-44.748
	c-27.344,15.582-45.795,44.977-45.795,78.701c0,50.006,40.537,90.543,90.543,90.543c33.724,0,63.119-18.451,78.701-45.795
	C324.733,343.841,309.469,348.16,293.187,348.16z"/>
<polygon style="fill:#F2F2F2;" points="322.111,72.399 386.425,72.399 322.111,8.084 "/>
<polygon style="fill:#FB9D46;" points="70.602,503.916 443.554,503.916 443.554,260.312 "/>
<polygon style="fill:#FF7452;" points="290.274,360.431 70.602,503.916 443.554,503.916 443.554,460.407 "/>
<polygon style="fill:#FB9D46;" points="441.398,503.916 68.446,503.916 68.446,260.312 "/>
<path d="M259.234,355.705c4.466,0,8.084-3.618,8.084-8.084v-9.162h7.006c10.401,0,18.863-8.463,18.863-18.863v-17.246
	c0-10.401-8.463-18.863-18.863-18.863h-7.006v-22.636h22.097c4.466,0,8.084-3.618,8.084-8.084c0-4.466-3.618-8.084-8.084-8.084
	h-22.097v-9.162c0-4.466-3.618-8.084-8.084-8.084c-4.465,0-8.084,3.618-8.084,8.084v9.162h-7.006
	c-10.401,0-18.863,8.463-18.863,18.863v17.246c0,10.401,8.463,18.863,18.863,18.863h7.006v22.636h-22.097
	c-4.465,0-8.084,3.618-8.084,8.084s3.62,8.084,8.084,8.084h22.097v9.162C251.149,352.087,254.769,355.705,259.234,355.705z
	 M244.143,283.486c-1.485,0-2.695-1.208-2.695-2.695v-17.246c0-1.486,1.209-2.695,2.695-2.695h7.006v22.636H244.143z
	 M267.318,299.655h7.006c1.486,0,2.695,1.208,2.695,2.695v17.246c0,1.486-1.208,2.695-2.695,2.695h-7.006V299.655z"/>
<path d="M302.888,113.718c0-4.466-3.618-8.084-8.084-8.084H169.768c-4.465,0-8.084,3.618-8.084,8.084s3.62,8.084,8.084,8.084
	h125.036C299.27,121.802,302.888,118.184,302.888,113.718z"/>
<path d="M169.768,80.842h125.036c4.466,0,8.084-3.618,8.084-8.084c0-4.466-3.618-8.084-8.084-8.084H169.768
	c-4.465,0-8.084,3.618-8.084,8.084C161.684,77.224,165.304,80.842,169.768,80.842z"/>
<path d="M171.924,146.594c-4.465,0-8.084,3.618-8.084,8.084s3.62,8.084,8.084,8.084h94.855c4.466,0,8.084-3.618,8.084-8.084
	s-3.618-8.084-8.084-8.084H171.924z"/>
<path d="M292.648,162.762h49.583c4.466,0,8.084-3.618,8.084-8.084s-3.618-8.084-8.084-8.084h-49.583
	c-4.466,0-8.084,3.618-8.084,8.084S288.183,162.762,292.648,162.762z"/>
<path d="M449.399,254.726c0,0-54.418-56.85-54.89-57.169V135.28c0-4.466-3.618-8.084-8.084-8.084c-4.466,0-8.084,3.618-8.084,8.084
	v157.97l-21.78,14.226c0.847-5.228,1.3-10.535,1.3-15.908c0-54.383-44.244-98.627-98.627-98.627s-98.627,44.247-98.627,98.63
	c0,7.038,0.73,13.952,2.171,20.7l-24.807-16.203V16.168h176.056v56.231c0,4.466,3.618,8.084,8.084,8.084h56.231v18.144
	c0,4.466,3.618,8.084,8.084,8.084c4.466,0,8.084-3.618,8.084-8.084V72.399c0-2.144-0.852-4.199-2.367-5.717L327.828,2.367
	C326.31,0.852,324.254,0,322.111,0H129.886c-4.465,0-8.084,3.618-8.084,8.084V194.19c-0.038,0.037-0.079,0.069-0.115,0.107
	l-59.02,60.362c-1.478,1.511-2.305,3.54-2.305,5.652v137.971c0,4.466,3.62,8.084,8.084,8.084s8.084-3.618,8.084-8.084V275.248
	l337.708,220.584H76.531v-56.588c0-4.466-3.62-8.084-8.084-8.084s-8.084,3.618-8.084,8.084v64.673c0,4.466,3.62,8.084,8.084,8.084
	h375.107c4.466,0,8.084-3.618,8.084-8.084V260.312C451.638,258.231,450.836,256.231,449.399,254.726z M330.195,27.601l36.714,36.714
	h-36.714V27.601z M435.469,275.248v215.139l-164.686-107.57L435.469,275.248z M394.509,220.688l36.479,38.175l-36.479,23.827
	V220.688z M184.25,325.928c-4.96-10.805-7.475-22.365-7.475-34.358c0-45.469,36.991-82.459,82.459-82.459
	c45.469,0,82.459,36.99,82.459,82.459c0,10.027-1.794,19.797-5.292,29.075L256,373.162l-71.553-46.736
	C184.385,326.259,184.324,326.092,184.25,325.928z M121.802,217.307v68.199l-40.694-26.581L121.802,217.307z"/>
</svg>