<?xml version="1.0" encoding="iso-8859-1"?>
<!-- Uploaded to: SVG Repo, www.svgrepo.com, Generator: SVG Repo Mixer Tools -->
<svg version="1.1" id="Layer_1" xmlns="http://www.w3.org/2000/svg" xmlns:xlink="http://www.w3.org/1999/xlink" 
	 viewBox="0 0 512 512" xml:space="preserve">
<g>
	<rect x="11.19" y="339.473" style="fill:#FFD652;" width="295.64" height="109.742"/>
	<path style="fill:#FFD652;" d="M484.981,339.472h-43.264V237.117c0-8.741-7.087-15.828-15.828-15.828H306.65l0.176,227.926h193.983
		v-93.914C500.809,346.558,493.724,339.472,484.981,339.472z"/>
</g>
<rect x="336.192" y="246.614" style="fill:#C4EDFD;" width="75.976" height="67.534"/>
<g>
	<polygon style="fill:#FFFFFF;" points="383.329,246.613 336.196,293.746 336.196,308.519 398.102,246.613 	"/>
	<polygon style="fill:#FFFFFF;" points="407.248,246.613 339.714,314.147 369.963,314.147 412.171,271.939 412.171,246.613 	"/>
</g>
<path style="fill:#FB9D46;" d="M484.981,444.994H27.018c-8.741,0-15.828-7.087-15.828-15.828v-26.38h489.62v26.38
	C500.809,437.907,493.724,444.994,484.981,444.994z"/>
<path style="fill:#FF7452;" d="M484.981,466.098H27.018c-8.741,0-15.828-7.087-15.828-15.828v-26.38h489.62v26.38
	C500.809,459.011,493.724,466.098,484.981,466.098z"/>
<circle style="fill:#808080;" cx="125.149" cy="440.774" r="63.313"/>
<path style="fill:#666666;" d="M143.091,486.147c-34.967,0-63.313-28.346-63.313-63.313c0-12.896,3.865-24.884,10.486-34.889
	C73.14,399.278,61.84,418.702,61.84,440.773c0,34.967,28.346,63.313,63.313,63.313c22.071,0,41.495-11.3,52.827-28.424
	C167.976,482.282,155.987,486.147,143.091,486.147z"/>
<circle style="fill:#458FDE;" cx="125.149" cy="440.774" r="29.546"/>
<circle style="fill:#808080;" cx="374.179" cy="440.774" r="63.313"/>
<path style="fill:#666666;" d="M392.122,486.147c-34.967,0-63.313-28.346-63.313-63.313c0-12.896,3.865-24.884,10.486-34.889
	c-17.124,11.332-28.424,30.756-28.424,52.827c0,34.967,28.346,63.313,63.313,63.313c22.071,0,41.495-11.3,52.827-28.424
	C417.006,482.282,405.018,486.147,392.122,486.147z"/>
<circle style="fill:#458FDE;" cx="374.179" cy="440.774" r="29.546"/>
<g>
	<rect x="11.19" y="103.105" style="fill:#FF7452;" width="295.46" height="236.368"/>
	<rect x="11.19" y="103.105" style="fill:#FF7452;" width="295.46" height="223.357"/>
</g>
<rect x="11.19" y="318.369" style="fill:#E24642;" width="295.46" height="21.104"/>
<rect x="110.376" y="103.453" style="fill:#C42725;" width="97.08" height="236.02"/>
<rect x="133.59" y="103.105" style="fill:#5AC779;" width="50.65" height="236.368"/>
<path d="M484.981,331.558h-35.35v-94.442c0-13.092-10.651-23.742-23.742-23.742h-39.043c-4.372,0-7.914,3.543-7.914,7.914
	c0,4.371,3.542,7.914,7.914,7.914h39.043c4.364,0,7.914,3.55,7.914,7.914v102.356c0,4.371,3.542,7.914,7.914,7.914h43.264
	c4.364,0,7.914,3.55,7.914,7.914v60.675H440.95c-10.092-27.084-36.21-46.43-66.767-46.43c-30.572,0-56.7,19.363-66.781,46.467
	c-0.248-0.023-0.498-0.038-0.752-0.038h-114.73c-10.092-27.084-36.21-46.43-66.767-46.43s-56.675,19.345-66.767,46.43H19.104
	v-68.589H306.65c0.03,0,0.058-0.004,0.088-0.004s0.058,0.004,0.088,0.004c0.004,0,0.008,0,0.012,0
	c4.372-0.006,7.909-3.555,7.903-7.926l-0.165-110.258h32.172c4.372,0,7.914-3.543,7.914-7.914c0-4.371-3.542-7.914-7.914-7.914
	h-32.184v-110.27c0-4.371-3.542-7.914-7.914-7.914H196.991c22.483-10.69,48.726-24.034,55.95-31.259
	c14.605-14.606,14.605-38.371,0-52.977c-14.605-14.606-38.371-14.605-52.976,0c-9.727,9.726-30.544,53.922-41.046,77.006
	C148.417,64.876,127.6,20.68,117.873,10.954c-14.605-14.605-38.371-14.605-52.976,0c-7.075,7.075-10.972,16.482-10.972,26.488
	s3.896,19.413,10.972,26.489c7.225,7.225,33.467,20.568,55.95,31.259H11.19c-4.371,0-7.914,3.543-7.914,7.914v88.638
	c0,4.371,3.543,7.914,7.914,7.914s7.914-3.543,7.914-7.914v-80.724H125.68v220.54H19.104v-93.387c0-4.371-3.543-7.914-7.914-7.914
	s-7.914,3.543-7.914,7.914v101.301v109.742c0,0.178,0.015,0.352,0.026,0.528c-0.012,0.175-0.026,0.349-0.026,0.528
	c0,13.092,10.65,23.742,23.742,23.742h35.166C74.147,496.582,97.878,512,125.153,512s51.006-15.418,62.969-37.988h123.094
	C323.179,496.582,346.909,512,374.185,512c27.282,0,51.018-15.425,62.977-38.005c0.112,0.005,0.223,0.017,0.336,0.017h47.485
	c13.091,0,23.742-10.65,23.742-23.742v-26.38v-68.589C508.724,342.209,498.073,331.558,484.981,331.558z M298.736,331.558H192.159
	v-220.54h106.577V331.558z M211.158,22.146c4.086-4.086,9.518-6.336,15.296-6.336c5.778,0,11.211,2.251,15.296,6.336
	c8.434,8.434,8.434,22.158,0,30.593c-6.104,6.103-37.961,21.914-65.054,34.461C189.244,60.108,205.054,28.25,211.158,22.146z
	 M69.754,37.442c0-5.778,2.25-11.211,6.336-15.296c4.086-4.086,9.518-6.336,15.296-6.336c5.778,0,11.211,2.251,15.296,6.336
	c6.104,6.104,21.914,37.961,34.462,65.054c-27.093-12.549-58.95-28.358-65.054-34.461C72.005,48.653,69.754,43.221,69.754,37.442z
	 M141.509,111.018h34.822v220.54h-34.822V111.018z M27.018,458.184c-4.364,0-7.914-3.55-7.914-7.914
	c0-0.178-0.015-0.352-0.026-0.528c0.012-0.175,0.026-0.349,0.026-0.528v-17.411H54.51c-0.371,2.941-0.585,5.929-0.585,8.969
	c0,6.005,0.756,11.836,2.161,17.411H27.018z M125.153,496.172c-30.547,0-55.399-24.851-55.399-55.399s24.851-55.399,55.399-55.399
	s55.399,24.851,55.399,55.399S155.7,496.172,125.153,496.172z M194.219,458.184c1.406-5.575,2.161-11.406,2.161-17.411
	c0-3.04-0.213-6.028-0.585-8.969h107.746c-0.371,2.941-0.585,5.929-0.585,8.969c0,6.005,0.756,11.836,2.161,17.411H194.219z
	 M374.184,496.172c-30.546,0-55.399-24.851-55.399-55.399s24.852-55.399,55.399-55.399s55.399,24.851,55.399,55.399
	S404.731,496.172,374.184,496.172z M484.981,458.184H443.25c1.406-5.575,2.161-11.406,2.161-17.411c0-3.04-0.213-6.028-0.585-8.969
	h48.069v18.466C492.895,454.633,489.346,458.184,484.981,458.184z"/>
<path d="M420.086,314.147v-67.534c0-4.371-3.542-7.914-7.914-7.914h-75.975c-4.372,0-7.914,3.543-7.914,7.914v67.534
	c0,4.371,3.542,7.914,7.914,7.914h75.975C416.543,322.061,420.086,318.518,420.086,314.147z M404.257,306.233H344.11v-51.706h60.147
	V306.233z"/>
<path d="M336.196,331.558c-4.372,0-7.914,3.543-7.914,7.914c0,4.371,3.542,7.914,7.914,7.914H357.3c4.372,0,7.914-3.543,7.914-7.914
	c0-4.371-3.542-7.914-7.914-7.914H336.196z"/>
<path d="M125.153,403.313c-20.656,0-37.46,16.804-37.46,37.46s16.804,37.46,37.46,37.46s37.46-16.804,37.46-37.46
	S145.809,403.313,125.153,403.313z M125.153,462.405c-11.928,0-21.632-9.704-21.632-21.632s9.704-21.632,21.632-21.632
	s21.632,9.704,21.632,21.632S137.081,462.405,125.153,462.405z"/>
<path d="M374.184,403.313c-20.656,0-37.46,16.804-37.46,37.46s16.804,37.46,37.46,37.46s37.46-16.804,37.46-37.46
	S394.841,403.313,374.184,403.313z M374.184,462.405c-11.928,0-21.632-9.704-21.632-21.632s9.704-21.632,21.632-21.632
	c11.928,0,21.632,9.704,21.632,21.632S386.112,462.405,374.184,462.405z"/>
</svg>