<?xml version="1.0" encoding="iso-8859-1"?>
<!-- Uploaded to: SVG Repo, www.svgrepo.com, Generator: SVG Repo Mixer Tools -->
<svg version="1.1" id="Layer_1" xmlns="http://www.w3.org/2000/svg" xmlns:xlink="http://www.w3.org/1999/xlink" 
	 viewBox="0 0 512 512" xml:space="preserve">
<path style="fill:#CCCCCC;" d="M389.612,8.017H122.388c-8.855,0-16.033,7.179-16.033,16.033v463.9
	c0,8.855,7.179,16.033,16.033,16.033h267.223c8.855,0,16.033-7.179,16.033-16.033V24.05C405.645,15.195,398.466,8.017,389.612,8.017
	z"/>
<g>
	<polygon style="fill:#F2F2F2;" points="173.417,503.983 213.499,503.983 405.645,311.837 405.645,271.755 	"/>
	<polygon style="fill:#F2F2F2;" points="405.645,327.869 229.531,503.983 279.232,503.983 405.645,377.571 	"/>
</g>
<circle style="fill:#E24642;" cx="256.086" cy="345.862" r="23.516"/>
<path style="fill:#FFD652;" d="M106.355,439.494v48.456c0,8.855,7.179,16.033,16.033,16.033h267.223
	c8.855,0,16.033-7.179,16.033-16.033v-48.456H106.355z"/>
<path style="fill:#B2B2B2;" d="M144.835,487.95V24.05c0-8.855,7.179-16.033,16.033-16.033h-38.48
	c-8.855,0-16.033,7.179-16.033,16.033v463.9c0,8.855,7.179,16.033,16.033,16.033h38.48
	C152.014,503.983,144.835,496.805,144.835,487.95z"/>
<path style="fill:#FB9D46;" d="M144.835,487.95v-48.456h-38.48v48.456c0,8.855,7.179,16.033,16.033,16.033h38.48
	C152.014,503.983,144.835,496.805,144.835,487.95z"/>
<polygon style="fill:#FFD652;" points="495.432,127.733 16.568,127.733 106.355,50.772 405.645,50.772 "/>
<g>
	<rect x="221.795" y="50.772" style="fill:#FF7452;" width="68.409" height="76.96"/>
	<polygon style="fill:#FF7452;" points="332.96,50.772 371.441,50.772 427.023,127.733 358.614,127.733 	"/>
	<polygon style="fill:#FF7452;" points="179.04,50.772 140.56,50.772 84.977,127.733 153.386,127.733 	"/>
</g>
<path style="fill:#FB9D46;" d="M463.365,196.142h-4.276c-17.711,0-32.067-14.356-32.067-32.067v-36.342h68.409v36.342
	C495.432,181.786,481.076,196.142,463.365,196.142z"/>
<path style="fill:#E24642;" d="M394.956,196.142h-4.276c-17.711,0-32.067-14.356-32.067-32.067v-36.342h68.409v36.342
	C427.023,181.786,412.667,196.142,394.956,196.142z"/>
<path style="fill:#FB9D46;" d="M326.547,196.142h-4.276c-17.71,0-32.067-14.356-32.067-32.067v-36.342h68.409v36.342
	C358.614,181.786,344.257,196.142,326.547,196.142z"/>
<path style="fill:#E24642;" d="M258.138,196.142h-4.276c-17.71,0-32.067-14.356-32.067-32.067v-36.342h68.409v36.342
	C290.205,181.786,275.848,196.142,258.138,196.142z"/>
<path style="fill:#FB9D46;" d="M189.729,196.142h-4.276c-17.71,0-32.067-14.356-32.067-32.067v-36.342h68.409v36.342
	C221.795,181.786,207.439,196.142,189.729,196.142z"/>
<path style="fill:#E24642;" d="M121.319,196.142h-4.276c-17.711,0-32.067-14.356-32.067-32.067v-36.342h68.409v36.342
	C153.386,181.786,139.03,196.142,121.319,196.142z"/>
<path style="fill:#FB9D46;" d="M52.91,196.142h-4.276c-17.71,0-32.067-14.356-32.067-32.067v-36.342h68.409v36.342
	C84.977,181.786,70.621,196.142,52.91,196.142z"/>
<rect x="106.355" y="8.017" style="fill:#E24642;" width="299.29" height="42.756"/>
<rect x="106.355" y="29.395" style="fill:#C42725;" width="299.29" height="21.378"/>
<path d="M354.338,287.609c2.051,0,4.103-0.782,5.669-2.348c3.131-3.131,3.131-8.207,0-11.337
	c-27.481-27.48-64.015-42.765-102.872-43.039c-0.356-0.002-0.707-0.003-1.061-0.003c-38.421,0-74.717,14.703-102.301,41.465
	c-3.178,3.083-3.255,8.159-0.171,11.336c3.083,3.177,8.158,3.255,11.336,0.171c51.024-49.507,133.447-48.878,183.732,1.408
	C350.235,286.827,352.286,287.609,354.338,287.609z"/>
<path d="M315.035,316.299c2.051,0,4.103-0.782,5.669-2.348c3.131-3.131,3.131-8.207,0-11.337
	c-16.972-16.971-39.532-26.471-63.526-26.749c-0.362-0.004-0.723-0.006-1.085-0.006c-23.548,0-45.863,8.905-62.941,25.141
	c-3.209,3.051-3.336,8.126-0.286,11.335c3.052,3.209,8.128,3.337,11.335,0.286c29.847-28.377,76.042-27.791,105.165,1.332
	C310.933,315.516,312.985,316.299,315.035,316.299z"/>
<path d="M233.785,323.567C233.784,323.567,233.784,323.567,233.785,323.567c-12.294,12.294-12.294,32.299,0,44.593
	c6.147,6.147,14.222,9.22,22.296,9.22c8.074,0,16.15-3.073,22.297-9.22c12.293-12.294,12.293-32.299-0.001-44.593
	C266.084,311.272,246.08,311.272,233.785,323.567z M267.041,334.904c6.042,6.044,6.042,15.876,0.001,21.919
	c-6.045,6.042-15.877,6.042-21.92,0s-6.042-15.876,0-21.919h-0.001C251.166,328.862,260.998,328.862,267.041,334.904z"/>
<path d="M273.102,461.762h-34.205c-4.428,0-8.017,3.589-8.017,8.017s3.588,8.017,8.017,8.017h34.205
	c4.428,0,8.017-3.589,8.017-8.017S277.531,461.762,273.102,461.762z"/>
<path d="M500.649,121.646l-86.988-74.561V8.017c0-4.427-3.588-8.017-8.017-8.017h-42.756c-4.428,0-8.017,3.589-8.017,8.017
	s3.588,8.017,8.017,8.017h34.739v26.722H114.372V16.033h205.762c4.428,0,8.017-3.589,8.017-8.017S324.562,0,320.134,0H106.355
	c-4.428,0-8.017,3.589-8.017,8.017v39.069l-86.988,74.561c-1.777,1.522-2.799,3.746-2.799,6.086v36.342
	c0,22.103,17.981,40.083,40.084,40.083h4.276c13.098,0,24.748-6.316,32.067-16.061c3.546,4.721,8.111,8.63,13.361,11.414v167.654
	c0,4.427,3.588,8.017,8.017,8.017c4.428,0,8.017-3.589,8.017-8.017V204.059c0.884,0.059,1.773,0.099,2.672,0.099h4.276
	c13.098,0,24.748-6.316,32.067-16.061c7.319,9.745,18.969,16.061,32.067,16.061h4.276c13.098,0,24.748-6.316,32.067-16.061
	c7.319,9.745,18.969,16.061,32.067,16.061h4.276c13.098,0,24.748-6.316,32.067-16.061c7.319,9.745,18.969,16.061,32.067,16.061
	h4.276c13.098,0,24.748-6.316,32.067-16.061c7.319,9.745,18.969,16.061,32.067,16.061h4.276c0.899,0,1.788-0.041,2.672-0.099
	v227.417H114.372v-27.969c0-4.427-3.588-8.017-8.017-8.017c-4.428,0-8.017,3.589-8.017,8.017v84.443
	c0,13.262,10.789,24.05,24.05,24.05h267.223c13.261,0,24.05-10.788,24.05-24.05V199.511c5.25-2.783,9.816-6.692,13.361-11.414
	c7.319,9.745,18.969,16.061,32.067,16.061h4.276c22.103,0,40.083-17.981,40.083-40.083v-36.342
	C503.449,125.393,502.426,123.169,500.649,121.646z M389.612,495.967H122.388c-4.421,0-8.017-3.596-8.017-8.017V447.51h283.257
	v40.439C397.628,492.371,394.033,495.967,389.612,495.967z M109.32,58.789h15.561l-44.003,60.927H38.24L109.32,58.789z
	 M144.659,58.789h23.259l-20.309,60.927h-46.953L144.659,58.789z M184.818,58.789h28.961v60.927h-49.27L184.818,58.789z
	 M229.812,58.789h52.376v60.927h-52.376V58.789z M298.221,58.789h28.961l20.309,60.927h-49.27V58.789z M364.392,119.716
	l-20.309-60.927h23.259l44.003,60.927H364.392z M431.122,119.716l-44.003-60.927h15.561l71.081,60.927H431.122z M52.91,188.125
	h-4.276c-13.261,0-24.05-10.788-24.05-24.05v-28.326H76.96v28.326C76.96,177.337,66.171,188.125,52.91,188.125z M121.319,188.125
	h-4.276c-13.261,0-24.05-10.788-24.05-24.05v-28.326h52.376v28.326C145.37,177.337,134.58,188.125,121.319,188.125z
	 M189.729,188.125h-4.276c-13.261,0-24.05-10.788-24.05-24.05v-28.326h52.376v28.326
	C213.779,177.337,202.989,188.125,189.729,188.125z M258.138,188.125h-4.276c-13.261,0-24.05-10.788-24.05-24.05v-28.326h52.376
	v28.326C282.188,177.337,271.398,188.125,258.138,188.125z M326.547,188.125h-4.276c-13.261,0-24.05-10.788-24.05-24.05v-28.326
	h52.376v28.326C350.597,177.337,339.808,188.125,326.547,188.125z M394.956,188.125h-4.276c-13.261,0-24.05-10.788-24.05-24.05
	v-28.326h52.376v28.326C419.006,177.337,408.217,188.125,394.956,188.125z M463.365,188.125h-4.276
	c-13.261,0-24.05-10.788-24.05-24.05v-28.326h52.376v28.326C487.415,177.337,476.626,188.125,463.365,188.125z"/>
</svg>