<?xml version="1.0" encoding="iso-8859-1"?>
<!-- Uploaded to: SVG Repo, www.svgrepo.com, Generator: SVG Repo Mixer Tools -->
<svg version="1.1" id="Layer_1" xmlns="http://www.w3.org/2000/svg" xmlns:xlink="http://www.w3.org/1999/xlink" 
	 viewBox="0 0 504.123 504.123" xml:space="preserve">
<circle style="fill:#90DFAA;" cx="252.062" cy="252.062" r="252.062"/>
<path style="fill:#324A5E;" d="M397.785,409.6H106.338c-6.695,0-11.815-5.12-11.815-11.815V106.338
	c0-6.695,5.12-11.815,11.815-11.815h291.446c6.695,0,11.815,5.12,11.815,11.815v291.446C409.6,404.48,404.48,409.6,397.785,409.6z"
	/>
<path style="fill:#FFD05B;" d="M220.16,409.6h-95.311V291.446c0-26.388,21.268-47.655,47.655-47.655l0,0
	c26.388,0,47.655,21.268,47.655,47.655V409.6z"/>
<rect x="204.406" y="324.923" style="fill:#324A5E;" width="6.302" height="11.815"/>
<polygon style="fill:#F4F4F4;" points="174.474,149.662 135.483,149.662 100.825,183.138 151.237,183.138 "/>
<path style="fill:#D3D3D3;" d="M100.825,183.138v9.058c0,13.785,11.422,25.206,25.206,25.206s25.206-11.422,25.206-25.206v-9.058
	H100.825z"/>
<polygon style="fill:#FF7058;" points="201.649,183.138 213.071,149.662 174.474,149.662 151.237,183.138 "/>
<path style="fill:#F1543F;" d="M151.237,183.138v9.058c0,13.785,11.422,25.206,25.206,25.206c13.785,0,25.206-11.422,25.206-25.206
	v-9.058H151.237z"/>
<polygon style="fill:#F4F4F4;" points="252.062,183.138 252.062,149.662 213.071,149.662 201.649,183.138 "/>
<path style="fill:#D3D3D3;" d="M201.649,183.138v9.058c0,13.785,11.422,25.206,25.206,25.206l0,0
	c13.785,0,25.206-11.422,25.206-25.206v-9.058H201.649z"/>
<path style="fill:#F1543F;" d="M252.062,183.138v9.058c0,13.785,11.422,25.206,25.206,25.206s25.206-11.422,25.206-25.206v-9.058
	H252.062z"/>
<polygon style="fill:#FF7058;" points="302.474,183.138 291.052,149.662 252.062,149.662 252.062,183.138 "/>
<polygon style="fill:#F4F4F4;" points="352.886,183.138 329.649,149.662 291.052,149.662 302.474,183.138 "/>
<path style="fill:#D3D3D3;" d="M302.474,183.138v9.058c0,13.785,11.422,25.206,25.206,25.206s25.206-11.422,25.206-25.206v-9.058
	H302.474z"/>
<path style="fill:#F1543F;" d="M352.886,183.138v9.058c0,13.785,11.422,25.206,25.206,25.206l0,0
	c13.785,0,25.206-11.422,25.206-25.206v-9.058H352.886z"/>
<polygon style="fill:#FF7058;" points="403.298,183.138 368.64,149.662 329.649,149.662 352.886,183.138 "/>
<rect x="119.729" y="113.428" style="fill:#E6E9EE;" width="186.289" height="17.723"/>
<rect x="332.012" y="113.428" style="fill:#FFD05B;" width="15.754" height="17.723"/>
<rect x="368.246" y="113.428" style="fill:#FF7058;" width="15.754" height="17.723"/>
<rect x="258.363" y="256" style="fill:#FFD05B;" width="118.154" height="118.154"/>
<rect x="272.148" y="269.785" style="fill:#54C0EB;" width="90.585" height="90.585"/>
</svg>