<?xml version="1.0" encoding="iso-8859-1"?>
<!-- Uploaded to: SVG Repo, www.svgrepo.com, Generator: SVG Repo Mixer Tools -->
<svg height="800px" width="800px" version="1.1" id="Layer_1" xmlns="http://www.w3.org/2000/svg" xmlns:xlink="http://www.w3.org/1999/xlink" 
	 viewBox="0 0 511.999 511.999" xml:space="preserve">
<circle style="fill:#5AC779;" cx="251.723" cy="219.658" r="89.787"/>
<path style="fill:#00A085;" d="M278.445,282.722c-49.588,0-89.787-40.199-89.787-89.787c0-17.955,5.291-34.665,14.369-48.696
	c-24.718,15.994-41.091,43.785-41.091,75.418c0,49.588,40.199,89.787,89.787,89.787c31.633,0,59.424-16.373,75.418-41.091
	C313.11,277.431,296.4,282.722,278.445,282.722z"/>
<g>
	<path style="fill:#FF7452;" d="M446.261,238.898c-12.474,15.905-30.26,18.716-34.205,19.24c3.944,0.524,21.731,3.335,34.205,19.24
		c8.722,11.127,10.315,22.874,10.689,27.791c0.374-4.917,1.967-16.664,10.689-27.791c12.474-15.905,30.26-18.716,34.205-19.24
		c-3.944-0.524-21.731-3.335-34.205-19.24c-8.722-11.127-10.315-22.874-10.689-27.791
		C456.576,216.023,454.984,227.771,446.261,238.898z"/>
	<path style="fill:#FF7452;" d="M245.309,35.808c-12.474,15.905-30.26,18.716-34.205,19.24c3.944,0.524,21.731,3.335,34.205,19.24
		c8.722,11.127,10.315,22.874,10.689,27.791c0.374-4.917,1.967-16.664,10.689-27.791c12.474-15.905,30.26-18.716,34.205-19.24
		c-3.944-0.524-21.731-3.335-34.205-19.24c-8.722-11.127-10.315-22.874-10.689-27.791C255.624,12.934,254.032,24.681,245.309,35.808
		z"/>
	<path style="fill:#FF7452;" d="M65.735,238.898c12.474,15.905,30.26,18.716,34.205,19.24c-3.944,0.524-21.731,3.335-34.205,19.24
		c-8.722,11.127-10.315,22.874-10.689,27.791c-0.374-4.917-1.967-16.664-10.689-27.791c-12.474-15.905-30.26-18.716-34.205-19.24
		c3.944-0.524,21.731-3.335,34.205-19.24c8.722-11.127,10.315-22.874,10.689-27.791C55.421,216.023,57.013,227.771,65.735,238.898z"
		/>
</g>
<path style="fill:#FFD652;" d="M401.368,369.303l-70.547-29.929H204.692c-17.71,0-32.067,14.356-32.067,32.067v17.102
	c0,17.71,14.356,32.067,32.067,32.067h-10.689l-129.639-56.06c-15.909-6.879-34.406,0.128-41.763,15.823l-4.918,10.491
	c-7.646,16.31-0.359,35.717,16.132,42.966l161.38,70.936c2.033,0.894,4.231,1.355,6.452,1.355h185.891
	c2.074,0,4.128-0.402,6.049-1.185L506.12,459.09v-89.787H401.368z"/>
<g>
	<path style="fill:#FB9D46;" d="M193.178,399.232c-11.771-4.531-20.176-15.804-20.522-29.088c-0.017,0.431-0.033,0.862-0.033,1.297
		v17.102c0,13.651,8.534,25.302,20.554,29.929h123.214v-3.207c0-8.855-7.179-16.033-16.033-16.033H193.178z"/>
	<path style="fill:#FB9D46;" d="M387.539,482.605H201.646c-2.221,0-4.419-0.462-6.452-1.355L33.815,410.314
		c-8.073-3.549-13.933-10.014-16.923-17.602c-6.288,15.902,1.05,34.14,16.923,41.117l161.38,70.936
		c2.033,0.894,4.231,1.355,6.452,1.355H387.54c2.074,0,4.128-0.403,6.049-1.185L506.12,459.09v-23.516L393.587,481.42
		C391.667,482.202,389.612,482.605,387.539,482.605z"/>
</g>
<path d="M501.844,359.148H398.722l-69.047-29.292c-0.99-0.421-2.054-0.637-3.131-0.637H200.415
	c-22.103,0-40.084,17.981-40.084,40.084v17.102c0,3.931,0.569,7.733,1.629,11.326l-98.692-42.678
	c-20.019-8.657-42.948,0.033-52.204,19.779l-4.918,10.49c-4.622,9.861-5.059,20.905-1.232,31.101
	c3.828,10.196,11.426,18.226,21.398,22.608l72.537,31.884c4.052,1.784,8.783-0.06,10.565-4.114
	c1.782-4.053-0.061-8.783-4.114-10.565l-72.536-31.884c-5.983-2.629-10.541-7.447-12.84-13.564
	c-2.295-6.117-2.033-12.744,0.74-18.661l4.918-10.49c5.553-11.849,19.31-17.06,31.323-11.868l129.639,56.06
	c1.004,0.434,2.088,0.658,3.182,0.658h10.689H311.58c4.428,0,8.017-3.588,8.017-8.017c0-4.428-3.588-8.017-8.017-8.017H200.415
	c-13.261,0-24.05-10.789-24.05-24.05v-17.102c0-13.261,10.789-24.05,24.05-24.05h124.499l69.047,29.292
	c0.99,0.421,2.054,0.637,3.131,0.637h96.735v76.38l-107.538,43.812c-2.253,0.917-5.13,0.593-7.524,0.593
	c-4.452,0-169.413,0-174.459,0c-2.256,0-4.514,0.017-6.77,0c-1.17-0.01-2.311-0.203-3.389-0.678l-63.188-27.775
	c-4.055-1.781-8.783,0.061-10.566,4.113c-1.782,4.053,0.061,8.784,4.113,10.566l63.189,27.775c3.069,1.349,6.325,2.032,9.678,2.032
	h185.891c3.124,0,6.176-0.599,9.074-1.778l112.532-45.847c3.017-1.229,4.992-4.164,4.992-7.423v-89.787
	C509.861,362.737,506.272,359.148,501.844,359.148z"/>
<path d="M251.723,317.461c53.929,0,97.804-43.875,97.804-97.804c0-8.683-1.139-17.299-3.389-25.609
	c-1.157-4.275-5.556-6.801-9.832-5.644c-4.273,1.157-6.8,5.558-5.644,9.832c1.879,6.945,2.831,14.152,2.831,21.421
	c0,45.089-36.681,81.77-81.77,81.77s-81.77-36.681-81.77-81.77s36.681-81.77,81.77-81.77c26.718,0,51.809,13.102,67.118,35.05
	c2.532,3.63,7.528,4.525,11.161,1.988c3.631-2.533,4.521-7.53,1.988-11.161c-18.305-26.243-48.312-41.91-80.267-41.91
	c-53.929,0-97.804,43.875-97.804,97.804S197.794,317.461,251.723,317.461z"/>
<path d="M281.652,190.263c4.428,0,8.017-3.588,8.017-8.017s-3.588-8.017-8.017-8.017H259.74v-9.086c0-4.428-3.588-8.017-8.017-8.017
	s-8.017,3.588-8.017,8.017v9.086h-6.948c-10.314,0-18.706,8.392-18.706,18.706v17.102c0,10.314,8.392,18.706,18.706,18.706h6.948
	v22.447h-21.912c-4.428,0-8.017,3.588-8.017,8.017s3.588,8.017,8.017,8.017h21.912v9.086c0,4.428,3.588,8.017,8.017,8.017
	s8.017-3.588,8.017-8.017v-9.086h6.948c10.314,0,18.706-8.392,18.706-18.706v-17.102c0-10.314-8.392-18.706-18.706-18.706h-6.948
	v-22.447H281.652z M266.687,228.743c1.474,0,2.672,1.198,2.672,2.672v17.102c0,1.474-1.198,2.672-2.672,2.672h-6.948v-22.447
	H266.687z M243.706,212.71h-6.948c-1.474,0-2.672-1.198-2.672-2.672v-17.102c0-1.474,1.198-2.672,2.672-2.672h6.948V212.71z"/>
<path d="M411.002,266.085c5.443,0.724,19.158,3.753,28.951,16.239c6.958,8.877,8.628,18.505,9.004,23.453
	c0.317,4.179,3.802,7.41,7.994,7.41s7.677-3.229,7.994-7.41c0.376-4.949,2.046-14.577,9.003-23.452
	c9.794-12.488,23.509-15.517,28.952-16.24c3.985-0.529,6.962-3.927,6.962-7.947s-2.977-7.417-6.962-7.947
	c-5.443-0.724-19.158-3.753-28.951-16.239c-6.958-8.877-8.628-18.505-9.004-23.453c-0.317-4.179-3.802-7.41-7.994-7.41
	s-7.677,3.229-7.994,7.41c-0.376,4.949-2.046,14.576-9.004,23.453c-9.793,12.486-23.509,15.516-28.951,16.239
	c-3.985,0.529-6.962,3.927-6.962,7.947S407.017,265.555,411.002,266.085z M452.569,243.845
	C452.57,243.845,452.57,243.843,452.569,243.845c1.669-2.128,3.12-4.279,4.381-6.422c1.262,2.144,2.713,4.295,4.381,6.422
	c5.031,6.415,10.793,11.007,16.419,14.293c-5.628,3.286-11.389,7.879-16.42,14.294c-1.667,2.127-3.119,4.278-4.38,6.421
	c-1.262-2.144-2.713-4.295-4.381-6.422c-5.031-6.415-10.793-11.007-16.419-14.293C441.777,254.852,447.538,250.26,452.569,243.845z"
	/>
<path d="M210.05,62.995c5.443,0.724,19.158,3.753,28.951,16.239c6.958,8.877,8.628,18.505,9.004,23.453
	c0.317,4.179,3.802,7.41,7.994,7.41c4.192,0,7.677-3.229,7.994-7.41c0.376-4.949,2.046-14.577,9.003-23.452
	c9.794-12.488,23.509-15.517,28.952-16.24c3.983-0.53,6.96-3.927,6.96-7.947s-2.977-7.417-6.962-7.947
	c-5.443-0.724-19.158-3.753-28.951-16.239c-6.958-8.877-8.628-18.505-9.004-23.453c-0.316-4.18-3.801-7.41-7.993-7.41
	s-7.677,3.229-7.994,7.41c-0.376,4.949-2.046,14.577-9.004,23.453c-9.793,12.486-23.509,15.516-28.951,16.239
	c-3.984,0.53-6.961,3.927-6.961,7.947S206.065,62.465,210.05,62.995z M251.617,40.755C251.618,40.755,251.618,40.754,251.617,40.755
	c1.669-2.128,3.12-4.279,4.381-6.422c1.262,2.144,2.713,4.295,4.381,6.422c5.031,6.415,10.793,11.007,16.419,14.293
	c-5.628,3.286-11.389,7.879-16.42,14.294c-1.667,2.127-3.119,4.278-4.38,6.421c-1.262-2.144-2.713-4.295-4.381-6.422
	c-5.031-6.415-10.793-11.007-16.419-14.293C240.825,51.762,246.586,47.17,251.617,40.755z"/>
<path d="M9.098,266.085c5.443,0.724,19.158,3.753,28.951,16.239c6.958,8.877,8.628,18.505,9.004,23.453
	c0.317,4.179,3.802,7.41,7.994,7.41s7.677-3.229,7.994-7.41c0.376-4.949,2.046-14.577,9.003-23.452
	c9.794-12.488,23.509-15.517,28.952-16.24c3.985-0.529,6.962-3.927,6.962-7.947s-2.977-7.417-6.962-7.947
	c-5.442-0.724-19.158-3.754-28.951-16.239c-6.959-8.877-8.628-18.505-9.004-23.453c-0.319-4.18-3.803-7.41-7.995-7.41
	s-7.677,3.229-7.994,7.41c-0.376,4.949-2.046,14.576-9.003,23.452c-9.794,12.488-23.509,15.517-28.952,16.24
	c-3.984,0.53-6.961,3.927-6.961,7.947S5.113,265.555,9.098,266.085z M50.666,243.843c1.667-2.127,3.119-4.277,4.38-6.421
	c1.261,2.144,2.713,4.294,4.38,6.421c0,0,0,0.001,0.001,0.001c5.031,6.415,10.793,11.007,16.419,14.293
	c-5.628,3.286-11.389,7.879-16.42,14.294c-1.667,2.127-3.119,4.278-4.38,6.421c-1.262-2.144-2.713-4.295-4.381-6.422
	c-5.031-6.415-10.793-11.007-16.419-14.293C39.873,254.852,45.635,250.259,50.666,243.843z"/>
</svg>