<svg width="18" height="20" viewBox="0 0 18 20" fill="none" xmlns="http://www.w3.org/2000/svg">
<path d="M10.6684 19.1667H7.33172C7.12266 19.1667 6.91987 19.0953 6.75697 18.9643C6.59408 18.8332 6.48088 18.6504 6.43614 18.4462L6.06306 16.7192C5.56536 16.5011 5.09344 16.2284 4.65597 15.9061L2.97206 16.4424C2.77274 16.5059 2.55768 16.4994 2.36258 16.4239C2.16749 16.3483 2.0041 16.2083 1.89956 16.0271L0.227557 13.1387C0.124107 12.9573 0.085274 12.7462 0.117412 12.5399C0.14955 12.3336 0.250757 12.1443 0.404473 12.003L1.71072 10.8113C1.65132 10.2715 1.65132 9.72677 1.71072 9.18696L0.404473 7.99804C0.250539 7.85667 0.149195 7.66719 0.117052 7.46067C0.0849082 7.25416 0.123872 7.04285 0.227557 6.86137L1.89589 3.97112C2.00044 3.78991 2.16382 3.64992 2.35892 3.57438C2.55401 3.49884 2.76907 3.49231 2.96839 3.55587L4.65231 4.09212C4.87597 3.92712 5.10881 3.77312 5.34897 3.63379C5.58089 3.50362 5.81922 3.38537 6.06306 3.27996L6.43706 1.55479C6.48158 1.35056 6.59457 1.16767 6.75729 1.03646C6.92001 0.90525 7.12269 0.833594 7.33172 0.833374H10.6684C10.8774 0.833594 11.0801 0.90525 11.2428 1.03646C11.4055 1.16767 11.5185 1.35056 11.5631 1.55479L11.9407 3.28087C12.4378 3.5002 12.9096 3.77283 13.3478 4.09396L15.0326 3.55771C15.2318 3.49438 15.4467 3.50103 15.6416 3.57655C15.8365 3.65208 15.9997 3.79194 16.1042 3.97296L17.7726 6.86321C17.9852 7.23629 17.9119 7.70837 17.5956 7.99896L16.2894 9.19062C16.3488 9.73044 16.3488 10.2751 16.2894 10.815L17.5956 12.0066C17.9119 12.2981 17.9852 12.7693 17.7726 13.1424L16.1042 16.0326C15.9997 16.2138 15.8363 16.3538 15.6412 16.4294C15.4461 16.5049 15.231 16.5114 15.0317 16.4479L13.3478 15.9116C12.9107 16.2337 12.4391 16.5061 11.9416 16.7238L11.5631 18.4462C11.5184 18.6503 11.4053 18.8329 11.2426 18.964C11.0799 19.095 10.8773 19.1665 10.6684 19.1667V19.1667ZM8.99639 6.33337C8.02393 6.33337 7.0913 6.71968 6.40366 7.40732C5.71603 8.09495 5.32972 9.02758 5.32972 10C5.32972 10.9725 5.71603 11.9051 6.40366 12.5928C7.0913 13.2804 8.02393 13.6667 8.99639 13.6667C9.96885 13.6667 10.9015 13.2804 11.5891 12.5928C12.2767 11.9051 12.6631 10.9725 12.6631 10C12.6631 9.02758 12.2767 8.09495 11.5891 7.40732C10.9015 6.71968 9.96885 6.33337 8.99639 6.33337V6.33337Z" fill="black"/>
</svg>
